<svg width="50" height="50" viewBox="0 0 50 50" fill="none" xmlns="http://www.w3.org/2000/svg">
<rect width="50" height="50" rx="19" fill="#FAB005"/>
<path d="M25.4821 24.6429L26.6518 25.1875L28.3929 24.6696V23.4554C28.3929 21.3929 26.6518 19.7411 24.5714 19.7411C22.5 19.7411 20.75 21.3839 20.75 23.4286V28.9643C20.75 29.4732 20.3393 29.875 19.8393 29.875C19.3393 29.875 18.9286 29.4732 18.9286 28.9643V26.625H16C16 28.9732 16 29 16 29C16 31.1161 17.7143 32.8304 19.8304 32.8304C21.9286 32.8304 23.6607 31.1429 23.6607 29.0536V23.5893C23.6607 23.0893 24.0714 22.6786 24.5714 22.6786C25.0714 22.6786 25.4821 23.0893 25.4821 23.5893V24.6429ZM30.2143 26.625V29.0804C30.2143 29.5804 29.8036 29.9821 29.3036 29.9821C28.8036 29.9821 28.3929 29.5804 28.3929 29.0804V26.6696L26.6518 27.1875L25.4821 26.6429V29.0357C25.4821 31.1339 27.2054 32.8304 29.3125 32.8304C31.4286 32.8304 33.1429 31.1161 33.1429 29C33.1429 29 33.1429 28.9732 33.1429 26.625H30.2143Z" fill="white"/>
</svg>
