<svg width="51" height="50" viewBox="0 0 51 50" fill="none" xmlns="http://www.w3.org/2000/svg">
<rect width="50" height="50" rx="19" fill="#7752BE"/>
<path d="M29.1161 27.5982L19.9732 18.4554C19.8661 18.3393 19.7232 18.2857 19.5714 18.2857C19.5 18.2857 19.4196 18.3036 19.3571 18.3304C19.1429 18.4196 19 18.625 19 18.8571V32.2857C19 32.5179 19.1429 32.7232 19.3571 32.8125C19.4196 32.8393 19.5 32.8571 19.5714 32.8571C19.7232 32.8571 19.8661 32.7946 19.9732 32.6875L22.7589 29.9018L24.4643 33.9375C24.5893 34.2232 24.9196 34.3661 25.2143 34.2411L26.7946 33.5714C27.0804 33.4464 27.2232 33.1161 27.0982 32.8214L25.3036 28.5714H28.7143C28.9464 28.5714 29.1518 28.4286 29.2411 28.2143C29.3304 28.0089 29.2857 27.7589 29.1161 27.5982Z" fill="white"/>
</svg>
