<svg width="50" height="50" viewBox="0 0 50 50" fill="none" xmlns="http://www.w3.org/2000/svg">
<rect width="50" height="50" rx="19" fill="#4DADF7"/>
<path d="M30.5714 19.4286H31.4286C31.5893 19.4286 31.7143 19.3036 31.7143 19.1429V18.5714C31.7143 18.4107 31.5893 18.2857 31.4286 18.2857H18.2857C18.125 18.2857 18 18.4107 18 18.5714V19.1429C18 19.3036 18.125 19.4286 18.2857 19.4286H19.1429C19.1429 22.7321 20.7232 25.125 22.4732 26.2857C20.7232 27.4464 19.1429 29.8393 19.1429 33.1429H18.2857C18.125 33.1429 18 33.2679 18 33.4286V34C18 34.1607 18.125 34.2857 18.2857 34.2857H31.4286C31.5893 34.2857 31.7143 34.1607 31.7143 34V33.4286C31.7143 33.2679 31.5893 33.1429 31.4286 33.1429H30.5714C30.5714 29.8393 28.9911 27.4464 27.2411 26.2857C28.9911 25.125 30.5714 22.7321 30.5714 19.4286ZM29.4286 19.4286C29.4286 20.7321 29.1339 21.8839 28.6696 22.8571H21.0446C20.5804 21.8839 20.2857 20.7321 20.2857 19.4286H29.4286ZM28.9196 30.2857H20.7946C21.4554 28.5625 22.6429 27.3393 23.8304 26.8571H25.8839C27.0714 27.3393 28.2589 28.5625 28.9196 30.2857Z" fill="white"/>
</svg>
