<svg width="542" height="609" viewBox="0 0 542 609" fill="none" xmlns="http://www.w3.org/2000/svg">
<path d="M538.65 395.3C531.432 435.945 510.673 472.952 479.75 500.3C469.073 509.714 457.521 518.086 445.25 525.3C402 551.45 348.4 567.3 292.6 580.3L283.05 582.45C274.756 584.334 266.248 585.107 257.75 584.75C169 581.05 108.55 449.5 89.75 311.05C73.35 187.8 100.8 48.2 223.7 41.9C269.85 39.6 323.7 62.6 373.7 99.6C377.3 102.25 380.9 105 384.45 107.8L386.65 109.55C480 183.95 556.25 304.6 538.65 395.3Z" fill="#FDE6D6"/>
<path d="M103.05 511.35C110 525.4 112.55 543.2 98.6001 548.9C83.0001 555.3 58.1001 545 50.9001 521.55C46.2501 506.55 47.8501 485.65 60.9001 477.6C71.5501 470.7 94.7501 494.15 103.05 511.35Z" fill="#F5F9FD"/>
<path d="M484.75 196.25C478.5 190.8 473.5 182.7 478.8 177.25C484.1 171.8 498.4 171.35 506.8 181.3C512.15 187.65 515.85 198.05 511.8 204.4C508.2 209.8 492.55 202.9 484.75 196.25Z" fill="#FFAD69"/>
<path fill-rule="evenodd" clip-rule="evenodd" d="M189.75 115.55C186.45 115.2 183.1 114.95 179.75 114.8C179.485 114.876 179.201 114.776 179.041 114.551C178.882 114.326 178.882 114.024 179.041 113.799C179.201 113.574 179.485 113.474 179.75 113.55C182.748 113.55 185.828 113.88 188.84 114.203C189.144 114.235 189.448 114.268 189.75 114.3C189.919 114.312 190.076 114.394 190.18 114.528C190.285 114.661 190.329 114.833 190.3 115C190.259 115.285 190.035 115.509 189.75 115.55ZM140.25 119.15C139.98 119.129 139.746 118.954 139.65 118.7C139.554 118.355 139.755 117.997 140.1 117.9C143.25 117.05 146.55 116.3 150.1 115.65C150.259 115.605 150.43 115.628 150.572 115.713C150.714 115.798 150.815 115.938 150.85 116.1C150.912 116.444 150.691 116.775 150.35 116.85C147.05 117.5 143.8 118.25 140.65 119.1L140.25 119.15ZM219.35 121.15C222.55 122 225.75 122.9 228.95 123.9H229.4C229.731 123.9 230 123.631 230 123.3C230 122.969 229.731 122.7 229.4 122.7C226.15 121.65 222.9 120.75 219.75 119.9C219.571 119.839 219.374 119.859 219.21 119.955C219.047 120.051 218.934 120.213 218.9 120.4C218.856 120.724 219.043 121.036 219.35 121.15ZM121.4 125.95C121.17 125.931 120.965 125.8 120.85 125.6C120.705 125.282 120.838 124.907 121.15 124.75C124.15 123.4 127.25 122.1 130.45 120.95C130.602 120.885 130.774 120.886 130.926 120.952C131.077 121.019 131.194 121.144 131.25 121.3C131.357 121.617 131.205 121.963 130.9 122.1C127.75 123.25 124.65 124.55 121.7 125.9L121.4 125.95ZM238.5 127.05C241.6 128.15 244.75 129.35 247.85 130.55L248.3 130.6C248.631 130.6 248.9 130.331 248.9 130C248.9 129.669 248.631 129.4 248.3 129.4C245.2 128.2 242.05 127 238.9 125.9C238.584 125.816 238.252 125.961 238.1 126.25C238 126.581 238.175 126.932 238.5 127.05ZM104.1 135.95C103.9 135.964 103.709 135.868 103.6 135.7C103.487 135.587 103.424 135.434 103.424 135.275C103.424 135.116 103.487 134.963 103.6 134.85C106.35 132.9 109.15 131.05 112.05 129.4C112.344 129.293 112.672 129.411 112.831 129.68C112.991 129.95 112.935 130.294 112.7 130.5C109.85 132.15 107 133.95 104.35 135.85C104.29 135.896 104.222 135.929 104.15 135.95H104.1ZM265.95 138.5H266.25H266.3C266.507 138.493 266.696 138.38 266.8 138.2C266.867 138.054 266.874 137.888 266.817 137.737C266.761 137.587 266.647 137.465 266.5 137.4C263.5 135.95 260.45 134.6 257.35 133.25C257.204 133.183 257.038 133.176 256.887 133.233C256.737 133.289 256.615 133.403 256.55 133.55C256.405 133.868 256.538 134.243 256.85 134.4C259.9 135.7 263 137.1 265.95 138.5ZM89.0707 149.06C88.9495 149.095 88.8197 149.092 88.7 149.05C88.5871 148.937 88.5236 148.784 88.5236 148.625C88.5236 148.466 88.5871 148.313 88.7 148.2C91.05 145.75 93.7 143.2 96 141.25C96.2515 141.009 96.6486 141.009 96.9 141.25C97.1413 141.501 97.1413 141.899 96.9 142.15C94.45 144.3 91.9 146.6 89.7 149C89.5143 149.128 89.2762 149.15 89.0707 149.06ZM301.55 157.55H301.25C298.45 155.8 295.55 154.1 292.65 152.55C292.462 152.434 292.351 152.227 292.358 152.006C292.365 151.786 292.489 151.585 292.683 151.481C292.877 151.377 293.112 151.384 293.3 151.5C294.816 152.362 296.331 153.252 297.833 154.133L297.833 154.133L297.833 154.134L297.833 154.134L297.834 154.134L297.834 154.134L297.835 154.135L297.838 154.136L297.843 154.139C299.211 154.942 300.567 155.738 301.9 156.5C302.013 156.613 302.077 156.766 302.077 156.925C302.077 157.084 302.013 157.237 301.9 157.35C301.813 157.459 301.688 157.53 301.55 157.55ZM76.25 164.65H76.6C76.8019 164.74 77.0383 164.701 77.2 164.55C78.8299 161.907 80.5762 159.691 82.3363 157.457L82.3363 157.457C82.5741 157.155 82.812 156.853 83.05 156.55C83.1792 156.436 83.2532 156.272 83.2532 156.1C83.2532 155.928 83.1792 155.764 83.05 155.65C82.9375 155.537 82.7845 155.474 82.625 155.474C82.4655 155.474 82.3126 155.537 82.2 155.65C80.15 158.25 78.15 160.95 76.25 163.8C76.1371 163.913 76.0736 164.066 76.0736 164.225C76.0736 164.384 76.1371 164.537 76.25 164.65ZM318.4 168.4C318.29 168.454 318.16 168.454 318.05 168.4L309.75 162.8C309.46 162.621 309.371 162.24 309.55 161.95C309.73 161.66 310.11 161.571 310.4 161.75C313.233 163.55 316.033 165.4 318.8 167.3C319.011 167.544 319.011 167.906 318.8 168.15C318.717 168.295 318.567 168.389 318.4 168.4ZM66.8 181.9C66.6399 181.836 66.5152 181.706 66.4577 181.543C66.4003 181.38 66.4157 181.201 66.5 181.05C67.9 178 69.45 175 71.05 172.1C71.1125 171.833 71.3362 171.633 71.6089 171.602C71.8817 171.571 72.1446 171.714 72.266 171.961C72.3874 172.207 72.341 172.503 72.15 172.7C70.55 175.55 69.05 178.55 67.6 181.6C67.5346 181.747 67.4131 181.861 67.2628 181.917C67.1124 181.974 66.9458 181.967 66.8 181.9ZM350.05 192.4C350.179 192.45 350.321 192.45 350.45 192.4C350.59 192.408 350.73 192.373 350.85 192.3C350.963 192.187 351.027 192.035 351.027 191.875C351.027 191.716 350.963 191.563 350.85 191.45C349.051 190.069 347.396 188.708 345.767 187.368L345.766 187.367L345.762 187.364C344.857 186.619 343.96 185.882 343.05 185.15C342.773 184.998 342.427 185.067 342.23 185.314C342.032 185.56 342.041 185.913 342.25 186.15C344.183 187.531 345.926 188.983 347.675 190.442C348.46 191.095 349.245 191.75 350.05 192.4ZM59.75 200.75C59.4415 200.614 59.2734 200.278 59.35 199.95C60.4 196.7 61.5 193.5 62.7 190.45C62.8523 190.161 63.1844 190.016 63.5 190.1C63.6557 190.156 63.7814 190.273 63.8477 190.424C63.9139 190.576 63.9148 190.748 63.85 190.9C62.7 193.9 61.6 197.1 60.55 200.3C60.4529 200.645 60.0951 200.846 59.75 200.75ZM365.699 205.482C365.632 205.481 365.565 205.471 365.5 205.45C363.05 203.2 360.5 201 357.95 198.85C357.732 198.59 357.732 198.21 357.95 197.95C358.202 197.709 358.599 197.709 358.85 197.95L366.4 204.55C366.618 204.81 366.618 205.19 366.4 205.45C366.191 205.597 365.917 205.608 365.699 205.482ZM54.3304 219.888C54.4261 220.032 54.579 220.127 54.75 220.15C54.94 220.165 55.127 220.096 55.2617 219.962C55.3965 219.827 55.4653 219.64 55.45 219.45C56.15 216.2 56.9 212.9 57.75 209.7C57.8158 209.371 57.621 209.047 57.3 208.95C57.1343 208.888 56.9496 208.902 56.7954 208.989C56.6411 209.076 56.533 209.226 56.5 209.4C56.3381 210.098 56.1762 210.79 56.0155 211.477L56.0155 211.477L56.0155 211.477L56.0154 211.478L56.0154 211.478C55.3823 214.184 54.7684 216.808 54.25 219.4C54.2054 219.567 54.2346 219.745 54.3304 219.888ZM394.3 233.55C394.157 233.614 393.993 233.614 393.85 233.55C391.6 231.1 389.25 228.55 386.95 226.3C386.709 226.049 386.709 225.651 386.95 225.4C387.21 225.182 387.59 225.182 387.85 225.4C388.843 226.436 389.844 227.509 390.843 228.579L390.844 228.579C392.16 229.989 393.471 231.393 394.75 232.7C394.991 232.951 394.991 233.349 394.75 233.6C394.598 233.627 394.442 233.61 394.3 233.55ZM50.8 239.2C50.7697 239.542 51.0106 239.849 51.35 239.9C51.6761 239.934 51.9761 239.719 52.05 239.4C52.45 235.95 52.9 232.6 53.4 229.4C53.4459 229.239 53.416 229.066 53.3187 228.93C53.2213 228.793 53.0672 228.709 52.9 228.7C52.7406 228.671 52.5763 228.708 52.4444 228.802C52.3126 228.896 52.2245 229.04 52.2 229.2C51.65 232.5 51.2 235.85 50.8 239.2ZM407.6 248.55C407.44 248.617 407.26 248.617 407.1 248.55L400.55 240.95C400.437 240.837 400.374 240.684 400.374 240.525C400.374 240.366 400.437 240.213 400.55 240.1C400.664 239.971 400.828 239.897 401 239.897C401.172 239.897 401.336 239.971 401.45 240.1C403.04 241.874 404.657 243.758 406.281 245.65C406.853 246.317 407.427 246.985 408 247.65C408.241 247.901 408.241 248.299 408 248.55C407.871 248.6 407.729 248.6 407.6 248.55ZM49.3071 259.657C49.4211 259.781 49.5819 259.851 49.75 259.85C50.0733 259.854 50.3503 259.619 50.4 259.3C50.4605 257.949 50.5698 256.59 50.6787 255.236C50.8398 253.232 51 251.239 51 249.3C51.0036 248.949 50.7472 248.65 50.4 248.6C50.2324 248.586 50.0666 248.643 49.9431 248.757C49.8195 248.871 49.7495 249.032 49.75 249.2C49.6963 249.91 49.6379 250.622 49.5793 251.336C49.3657 253.941 49.15 256.57 49.15 259.2C49.136 259.368 49.193 259.533 49.3071 259.657ZM420.3 264.2C420.141 264.273 419.959 264.273 419.8 264.2C417.75 261.5 415.7 258.85 413.65 256.3C413.537 256.187 413.474 256.035 413.474 255.875C413.474 255.716 413.537 255.563 413.65 255.45C413.764 255.321 413.928 255.247 414.1 255.247C414.272 255.247 414.436 255.321 414.55 255.45C415.159 256.226 415.777 256.993 416.399 257.766L416.4 257.767C417.824 259.533 419.274 261.333 420.7 263.35C420.941 263.602 420.941 263.999 420.7 264.25L420.3 264.2ZM49.15 279.3C49.15 279.631 49.4187 279.9 49.75 279.9H49.8C49.9682 279.901 50.1289 279.831 50.243 279.707C50.3571 279.583 50.4141 279.418 50.4 279.25V272.25V269.25C50.4006 269.082 50.3306 268.921 50.207 268.807C50.0834 268.693 49.9176 268.636 49.75 268.65C49.4187 268.65 49.15 268.919 49.15 269.25V272.25V279.3ZM431.75 280.5C431.572 280.565 431.378 280.565 431.2 280.5C429.4 277.8 427.5 275.05 425.55 272.25C425.437 272.137 425.374 271.984 425.374 271.825C425.374 271.666 425.437 271.513 425.55 271.4C425.802 271.159 426.199 271.159 426.45 271.4C428.45 274.15 430.35 276.95 432.15 279.65C432.361 279.894 432.361 280.256 432.15 280.5C432.023 280.556 431.878 280.556 431.75 280.5ZM441.85 297.2C441.946 297.387 442.14 297.504 442.35 297.5L442.7 297.2C442.813 297.087 442.876 296.934 442.876 296.775C442.876 296.616 442.813 296.463 442.7 296.35C441.25 293.5 439.5 290.65 437.7 287.75C437.456 287.539 437.094 287.539 436.85 287.75C436.632 288.01 436.632 288.39 436.85 288.65C437.81 290.36 438.824 292.07 439.838 293.78C440.514 294.92 441.19 296.06 441.85 297.2ZM50.55 299.9C50.2373 299.901 49.9761 299.662 49.95 299.35C49.95 297.308 49.7696 295.265 49.593 293.266C49.4756 291.937 49.3599 290.628 49.3 289.35C49.299 289.01 49.5607 288.726 49.9 288.7C50.0676 288.686 50.2334 288.743 50.357 288.857C50.4806 288.971 50.5506 289.132 50.55 289.3C50.55 291.631 50.7558 294.013 50.9644 296.429C51.0466 297.381 51.1293 298.339 51.2 299.3C51.2141 299.468 51.1571 299.633 51.043 299.757C50.9289 299.881 50.7682 299.951 50.6 299.95L50.55 299.9ZM451.25 314.8C451.381 315.008 451.605 315.139 451.85 315.15V315.1C452.162 314.943 452.295 314.568 452.15 314.25C450.7 311.3 449.15 308.3 447.55 305.3C447.376 305.007 447.005 304.897 446.7 305.05C446.489 305.294 446.489 305.656 446.7 305.9C448.3 308.9 449.85 311.9 451.25 314.8ZM52.65 319.85C52.3267 319.854 52.0498 319.619 52 319.3C51.6 316 51.2 312.65 50.85 309.3C50.8214 309.133 50.8648 308.961 50.9696 308.828C51.0744 308.695 51.2308 308.612 51.4 308.6C51.742 308.57 52.0486 308.811 52.1 309.15C52.45 312.45 52.85 315.8 53.25 319.15C53.2787 319.317 53.2353 319.489 53.1305 319.622C53.0257 319.756 52.8693 319.838 52.7 319.85H52.65ZM459.15 333.1C459.251 333.342 459.488 333.5 459.75 333.5L459.95 333.45C460.106 333.394 460.231 333.277 460.298 333.126C460.364 332.974 460.365 332.802 460.3 332.65C459.15 329.55 457.85 326.45 456.5 323.35C456.343 323.038 455.968 322.905 455.65 323.05C455.503 323.115 455.389 323.237 455.333 323.387C455.276 323.538 455.283 323.704 455.35 323.85C456.7 326.95 457.95 330.05 459.15 333.1ZM55.65 339.65C55.3541 339.654 55.0993 339.442 55.05 339.15C54.45 335.85 53.9 332.5 53.4 329.15C53.3714 328.977 53.4136 328.8 53.5171 328.659C53.6206 328.518 53.7767 328.425 53.95 328.4C54.292 328.37 54.5986 328.611 54.65 328.95C55.0272 331.439 55.4327 333.928 55.8453 336.46C55.9797 337.285 56.1149 338.114 56.25 338.95C56.3119 339.294 56.0911 339.625 55.75 339.7L55.65 339.65ZM465.85 352C465.899 352.292 466.154 352.504 466.45 352.5L466.6 352.45C466.762 352.415 466.902 352.314 466.987 352.172C467.073 352.03 467.095 351.859 467.05 351.7C466.15 348.55 465.15 345.3 464.1 342.1C464.055 341.935 463.942 341.797 463.789 341.721C463.637 341.645 463.459 341.637 463.3 341.7C463.135 341.745 462.997 341.858 462.921 342.011C462.845 342.163 462.837 342.341 462.9 342.5C463.95 345.65 464.95 348.9 465.85 352ZM59.75 359.3C59.4541 359.304 59.1993 359.092 59.15 358.8C58.4 355.5 57.7 352.2 57.1 348.8C57.0554 348.633 57.0846 348.455 57.1804 348.312C57.2761 348.168 57.429 348.073 57.6 348.05C57.7595 348.021 57.9238 348.058 58.0556 348.152C58.1875 348.246 58.2756 348.39 58.3 348.55C58.569 349.874 58.8466 351.215 59.1291 352.581L59.1303 352.587L59.1307 352.589L59.1307 352.589C59.5305 354.521 59.9403 356.501 60.35 358.55C60.3952 358.709 60.3725 358.88 60.2873 359.022C60.2021 359.164 60.0619 359.265 59.9 359.3H59.75ZM469.85 371.4C469.921 371.7 470.192 371.908 470.5 371.9L470.6 371.85C470.76 371.826 470.904 371.737 470.998 371.606C471.092 371.474 471.129 371.309 471.1 371.15C470.6 367.75 470 364.45 469.25 361.15C469.175 360.809 468.844 360.588 468.5 360.65C468.179 360.747 467.984 361.071 468.05 361.4C468.75 364.9 469.35 368.2 469.85 371.4ZM64.45 379.25C64.1694 379.259 63.9201 379.072 63.85 378.8V378.3C63 375.05 62.15 371.8 61.35 368.3C61.3122 367.962 61.5232 367.645 61.85 367.55C62.1745 367.506 62.4861 367.693 62.6 368L62.6002 368.001L62.6007 368.003C63.4004 371.252 64.2003 374.501 65.05 377.7V378.2C65.1461 378.545 64.9449 378.903 64.6 379L64.45 379.25ZM471.6 391.3C471.6 391.631 471.869 391.9 472.2 391.9L472.25 391.85C472.589 391.824 472.851 391.54 472.85 391.2C472.827 389.649 472.715 388.075 472.603 386.501L472.603 386.499C472.476 384.724 472.35 382.948 472.35 381.2C472.337 381.027 472.256 380.867 472.125 380.754C471.993 380.642 471.823 380.586 471.65 380.6C471.481 380.612 471.324 380.694 471.22 380.828C471.115 380.961 471.071 381.133 471.1 381.3C471.35 384.65 471.6 388 471.6 391.3ZM69.75 398.5C69.4876 398.5 69.251 398.342 69.15 398.1C68.2 394.9 67.25 391.65 66.35 388.45C66.3049 388.291 66.3276 388.12 66.4128 387.978C66.498 387.836 66.6382 387.735 66.8 387.7C66.9525 387.653 67.1174 387.669 67.2581 387.744C67.3988 387.819 67.5039 387.947 67.55 388.1C68.45 391.35 69.4 394.55 70.35 397.7C70.4505 398.031 70.2748 398.382 69.95 398.5H69.75ZM470.521 411.755C470.628 411.881 470.785 411.953 470.95 411.95L471.15 411.9C471.415 411.839 471.615 411.62 471.65 411.35C471.725 410.652 471.807 409.95 471.89 409.243C472.192 406.659 472.5 404.02 472.5 401.35C472.48 401.018 472.229 400.747 471.9 400.7C471.732 400.686 471.567 400.743 471.443 400.857C471.319 400.971 471.249 401.132 471.25 401.3C471.05 404.7 470.75 408.05 470.4 411.3C470.37 411.462 470.414 411.629 470.521 411.755ZM75.95 417.6C75.6798 417.579 75.446 417.404 75.35 417.15C74.3 414 73.25 410.85 72.25 407.65C72.2233 407.35 72.4062 407.071 72.6919 406.976C72.9777 406.88 73.2914 406.994 73.45 407.25C74.45 410.45 75.5 413.6 76.55 416.75C76.613 416.909 76.6053 417.087 76.5289 417.239C76.4526 417.392 76.3148 417.505 76.15 417.55L75.95 417.6ZM467.1 430.7C467.038 431.044 467.259 431.375 467.6 431.45L467.9 431.9C468.107 431.848 468.279 431.703 468.367 431.509C468.454 431.314 468.448 431.09 468.35 430.9C469.05 427.45 469.7 424.15 470.2 420.9C470.229 420.741 470.192 420.576 470.098 420.444C470.004 420.313 469.86 420.224 469.7 420.2C469.356 420.138 469.025 420.359 468.95 420.7C468.45 424.1 467.8 427.4 467.1 430.7ZM82.35 436.45C82.0876 436.45 81.851 436.292 81.75 436.05C80.6 432.95 79.45 429.8 78.35 426.65C78.2258 426.332 78.3825 425.974 78.7 425.85C79.0176 425.726 79.3758 425.882 79.5 426.2C79.8833 427.25 80.261 428.3 80.6387 429.349C81.3944 431.45 82.15 433.55 82.95 435.65C83.0505 435.981 82.8748 436.332 82.55 436.45H82.35ZM461.95 450.1C461.85 450.431 462.025 450.782 462.35 450.9H462.55C462.812 450.9 463.049 450.742 463.15 450.5C464.2 447.35 465.2 444.1 466.1 440.9C466.183 440.569 465.981 440.233 465.65 440.15C465.319 440.067 464.983 440.269 464.9 440.6C464 443.75 463.05 446.95 461.95 450.1ZM89.75 455.1C89.5099 455.116 89.287 454.974 89.2 454.75C87.9 451.65 86.65 448.55 85.45 445.45C85.3678 445.293 85.3593 445.107 85.4269 444.943C85.4944 444.779 85.631 444.654 85.8 444.6C86.1306 444.5 86.4821 444.675 86.6 445C87.8 448.1 89.05 451.2 90.35 454.25C90.4618 454.581 90.3125 454.944 90 455.1H89.75ZM454.45 468.55C454.305 468.868 454.438 469.243 454.75 469.4C455.068 469.545 455.443 469.412 455.6 469.1C457.05 466.15 458.4 463.05 459.7 459.95C459.807 459.633 459.655 459.287 459.35 459.15C459.204 459.083 459.038 459.076 458.887 459.133C458.737 459.189 458.615 459.303 458.55 459.45C457.25 462.55 455.9 465.6 454.45 468.55ZM97.85 473.5C97.6138 473.502 97.3985 473.365 97.3 473.15C95.9 470.1 94.55 467.05 93.2 463.95C93.1326 463.804 93.1263 463.638 93.1827 463.487C93.2391 463.337 93.3534 463.215 93.5 463.15C93.6572 463.068 93.8426 463.059 94.0066 463.127C94.1706 463.194 94.2963 463.331 94.35 463.5C95.3704 465.894 96.4524 468.288 97.5234 470.658C97.8169 471.307 98.1096 471.955 98.4 472.6C98.5446 472.918 98.4122 473.293 98.1 473.45L97.85 473.5ZM444.7 486.85H445L445.1 486.9C445.362 486.958 445.634 486.861 445.8 486.65C446.564 485.314 447.361 483.954 448.166 482.583L448.169 482.579C449.049 481.079 449.938 479.564 450.8 478.05C450.991 477.853 451.037 477.557 450.916 477.311C450.795 477.064 450.532 476.921 450.259 476.952C449.986 476.983 449.763 477.183 449.7 477.45C448.2 480.35 446.5 483.2 444.7 486C444.587 486.113 444.524 486.266 444.524 486.425C444.524 486.585 444.587 486.737 444.7 486.85ZM106.55 491.55C106.314 491.552 106.098 491.415 106 491.2C104.45 488.2 102.95 485.15 101.55 482.2C101.483 482.054 101.476 481.888 101.533 481.737C101.589 481.587 101.703 481.465 101.85 481.4C102.078 481.196 102.422 481.196 102.65 481.4L107.1 490.4C107.253 490.705 107.143 491.076 106.85 491.25L106.55 491.55ZM432.85 503H433.25H433.35C433.448 503.028 433.552 503.028 433.65 503C435.8 500.4 437.85 497.7 439.8 495.05C439.913 494.937 439.977 494.784 439.977 494.625C439.977 494.466 439.913 494.313 439.8 494.2C439.687 494.087 439.535 494.024 439.375 494.024C439.216 494.024 439.063 494.087 438.95 494.2C437.355 496.571 435.694 498.609 433.993 500.694L433.993 500.694C433.614 501.159 433.233 501.626 432.85 502.1C432.609 502.352 432.609 502.749 432.85 503ZM116.05 509.2C115.827 509.201 115.62 509.088 115.5 508.9L115.123 508.229C113.641 505.588 112.113 502.865 110.5 500.1C110.434 499.815 110.565 499.521 110.822 499.381C111.078 499.241 111.397 499.29 111.6 499.5C113.2 502.5 114.85 505.45 116.6 508.25C116.811 508.494 116.811 508.856 116.6 509.1L116.05 509.2ZM419.35 517.8C419.476 517.863 419.624 517.863 419.75 517.8C419.867 517.88 420.009 517.915 420.15 517.9C422.352 515.836 424.512 513.477 426.552 511.248L426.554 511.246L426.555 511.245L426.555 511.245C426.738 511.045 426.919 510.847 427.1 510.65C427.341 510.398 427.341 510.001 427.1 509.75C426.987 509.637 426.835 509.574 426.675 509.574C426.516 509.574 426.363 509.637 426.25 509.75C425.048 510.952 423.801 512.274 422.533 513.617L422.532 513.619C421.48 514.733 420.415 515.862 419.35 516.95C419.223 517.054 419.149 517.21 419.149 517.375C419.149 517.54 419.223 517.696 419.35 517.8ZM126.35 526.3C126.13 526.292 125.926 526.181 125.8 526C124.05 523.25 122.25 520.35 120.5 517.5C120.289 517.256 120.289 516.894 120.5 516.65C120.613 516.537 120.766 516.474 120.925 516.474C121.085 516.474 121.237 516.537 121.35 516.65C122.782 519.05 124.284 521.451 125.769 523.821L125.769 523.823C126.047 524.266 126.324 524.709 126.6 525.15C126.811 525.394 126.811 525.756 126.6 526L126.35 526.3ZM404.4 531.05C404.525 531.199 404.706 531.29 404.9 531.3L405.05 531.25C405.108 531.209 405.159 531.158 405.2 531.1L412.8 524.55C413.041 524.299 413.041 523.901 412.8 523.65C412.687 523.537 412.535 523.474 412.375 523.474C412.216 523.474 412.063 523.537 411.95 523.65C410.959 524.505 409.984 525.359 409.012 526.211L409.008 526.215L409.007 526.215L409.006 526.216L409.005 526.217L409.004 526.218L409.003 526.218L409.003 526.219L409.002 526.22L409.001 526.221L409 526.221L408.999 526.222L408.999 526.223L408.998 526.223L408.997 526.224C407.472 527.561 405.954 528.89 404.4 530.2C404.287 530.313 404.224 530.466 404.224 530.625C404.224 530.785 404.287 530.937 404.4 531.05ZM137.65 542.95C137.443 542.943 137.254 542.83 137.15 542.65C135.2 540.05 133.25 537.3 131.35 534.5C131.132 534.24 131.132 533.86 131.35 533.6C131.602 533.359 131.999 533.359 132.25 533.6C134.15 536.35 136.1 539.1 138 541.75C138.113 541.863 138.177 542.016 138.177 542.175C138.177 542.334 138.113 542.487 138 542.6C137.963 542.717 137.894 542.821 137.8 542.9L137.65 542.95ZM388.5 543.45C388.659 543.523 388.841 543.523 389 543.45L389.15 543.4C389.181 543.416 389.213 543.429 389.246 543.438C389.264 543.443 389.282 543.447 389.3 543.45C392.1 541.5 394.8 539.5 397.4 537.5C397.513 537.387 397.577 537.234 397.577 537.075C397.577 536.916 397.513 536.763 397.4 536.65C397.287 536.537 397.135 536.474 396.975 536.474C396.816 536.474 396.663 536.537 396.55 536.65C394.214 538.447 391.797 540.204 389.336 541.992L389.329 541.997L389.325 542L388.5 542.6C388.387 542.713 388.324 542.866 388.324 543.025C388.324 543.185 388.387 543.337 388.5 543.45ZM372.25 554.5C372.04 554.504 371.846 554.387 371.75 554.2C371.637 554.087 371.574 553.934 371.574 553.775C371.574 553.616 371.637 553.463 371.75 553.35C374.65 551.55 377.5 549.75 380.2 547.95C380.313 547.837 380.466 547.774 380.625 547.774C380.785 547.774 380.937 547.837 381.05 547.95C381.163 548.063 381.227 548.216 381.227 548.375C381.227 548.534 381.163 548.687 381.05 548.8C378.35 550.6 375.5 552.4 372.6 554.2L372.25 554.5ZM149.6 558.65C149.761 558.712 149.939 558.712 150.1 558.65L150.55 558.75C150.791 558.499 150.791 558.102 150.55 557.85C149.432 556.412 148.299 555.074 147.168 553.736L147.167 553.735L147.166 553.735L147.166 553.734L147.165 553.733L147.165 553.732L147.164 553.732L147.163 553.731L147.163 553.73L147.162 553.729L147.162 553.729L147.161 553.728L147.16 553.727L147.16 553.727L147.159 553.726L147.159 553.725L147.158 553.724L147.158 553.724L147.157 553.723L147.156 553.722L147.156 553.721L147.155 553.721L147.155 553.72L147.154 553.719L147.153 553.719L147.153 553.718L147.152 553.717L147.152 553.716L147.151 553.716L147.15 553.715L147.15 553.714L147.149 553.713L147.149 553.713L147.148 553.712L147.147 553.711L147.147 553.71L147.146 553.71L147.146 553.709L147.145 553.708L147.143 553.706C146.158 552.542 145.174 551.379 144.2 550.15C143.993 549.888 143.612 549.843 143.35 550.05C143.088 550.257 143.043 550.638 143.25 550.9C145.35 553.65 147.45 556.2 149.6 558.65ZM355.1 564.55C354.87 564.531 354.665 564.4 354.55 564.2C354.397 563.895 354.507 563.524 354.8 563.35C357.75 561.75 360.7 560.1 363.5 558.35C363.744 558.139 364.106 558.139 364.35 558.35C364.463 558.463 364.526 558.616 364.526 558.775C364.526 558.934 364.463 559.087 364.35 559.2L355.6 564.2L355.1 564.55ZM163.5 573.25C163.629 573.3 163.771 573.3 163.9 573.25V573.2C164.042 573.271 164.209 573.271 164.35 573.2C164.477 573.096 164.551 572.94 164.551 572.775C164.551 572.61 164.477 572.454 164.35 572.35C162.054 570.204 159.707 567.707 157.361 565.211L157.361 565.211L157.361 565.211L157.361 565.211L157.36 565.21L157.36 565.21L157.36 565.21L157.36 565.21L157.36 565.21L157.36 565.21L157.359 565.209L157.359 565.209L157.359 565.209L157.359 565.209L157.359 565.209L157.358 565.208L157.358 565.208L157.358 565.208L157.358 565.208L157.358 565.208L157.358 565.208L157.357 565.207L157.357 565.207L157.357 565.207L157.357 565.207L157.357 565.207L157.356 565.206L157.356 565.206L157.356 565.206L157.356 565.206L157.356 565.206L157.356 565.206L157.355 565.205L157.355 565.205L157.355 565.205L157.355 565.205L157.355 565.205L157.354 565.204L157.354 565.204L157.354 565.204L157.354 565.204L157.354 565.204L157.354 565.203L157.353 565.203L157.353 565.203L157.353 565.203L157.353 565.203L157.353 565.203L157.352 565.202L157.352 565.202L157.352 565.202L157.352 565.202L157.352 565.202L157.352 565.201L157.351 565.201L157.351 565.201L157.351 565.201L157.351 565.201L157.351 565.201L157.35 565.2L157.35 565.2L157.35 565.2C157.099 564.959 156.702 564.959 156.45 565.2C156.323 565.304 156.249 565.46 156.249 565.625C156.249 565.79 156.323 565.946 156.45 566.05C158.817 568.55 161.167 570.95 163.5 573.25ZM337.3 573.75C337.064 573.752 336.848 573.615 336.75 573.4C336.666 573.249 336.65 573.07 336.708 572.907C336.765 572.744 336.89 572.614 337.05 572.55L345.95 568.05C346.147 567.859 346.443 567.813 346.689 567.934C346.936 568.055 347.079 568.318 347.048 568.591C347.017 568.864 346.817 569.087 346.55 569.15C343.55 570.7 340.6 572.2 337.55 573.65L337.3 573.75ZM318.6 581.85C318.683 582.084 318.902 582.243 319.15 582.25L319.4 582.2L328.5 578C328.771 577.961 328.989 577.756 329.044 577.487C329.099 577.219 328.98 576.945 328.746 576.802C328.512 576.659 328.214 576.678 328 576.85C325.87 577.879 323.716 578.858 321.554 579.84L321.549 579.842L321.546 579.844C320.665 580.244 319.782 580.645 318.9 581.05C318.753 581.115 318.639 581.237 318.583 581.387C318.526 581.538 318.533 581.704 318.6 581.85ZM179.15 586.35C179.036 586.388 178.914 586.388 178.8 586.35C177.256 585.163 175.783 583.94 174.255 582.671C173.209 581.803 172.138 580.914 171 580C170.738 579.779 170.704 579.387 170.925 579.125C171.146 578.863 171.538 578.829 171.8 579.05C171.982 579.207 172.164 579.364 172.345 579.52L172.36 579.533C174.711 581.564 177.002 583.543 179.55 585.35C179.679 585.464 179.753 585.628 179.753 585.8C179.753 585.972 179.679 586.136 179.55 586.25C179.399 586.339 179.216 586.357 179.05 586.3L179.15 586.35ZM300.3 589.8C300.387 590.024 300.61 590.166 300.85 590.15L301.1 590.1C304.2 588.85 307.25 587.55 310.35 586.2C310.497 586.135 310.611 586.013 310.667 585.863C310.724 585.712 310.717 585.546 310.65 585.4C310.498 585.111 310.166 584.966 309.85 585.05C306.8 586.4 303.7 587.7 300.6 588.95C300.288 589.107 300.155 589.482 300.3 589.8ZM195.85 597.2H195.55C192.916 595.792 190.282 594.219 187.685 592.668L187.683 592.668C187.422 592.511 187.161 592.355 186.9 592.2C186.689 591.956 186.689 591.594 186.9 591.35C187.013 591.237 187.166 591.174 187.325 591.174C187.485 591.174 187.637 591.237 187.75 591.35C190.55 593.2 193.45 594.9 196.3 596.35C196.511 596.594 196.511 596.956 196.3 597.2C196.149 597.238 195.989 597.22 195.85 597.15V597.2ZM281.65 597.25C281.733 597.484 281.952 597.643 282.2 597.65L282.45 597.6L291.75 593.9C292.055 593.763 292.207 593.417 292.1 593.1C291.963 592.795 291.617 592.643 291.3 592.75L282 596.45C281.834 596.491 281.696 596.607 281.628 596.764C281.559 596.92 281.567 597.1 281.65 597.25ZM263.5 604.7C263.219 604.709 262.97 604.522 262.9 604.25C262.8 603.919 262.975 603.568 263.3 603.45C264.736 603.004 266.222 602.459 267.708 601.913L267.709 601.913L267.71 601.913L267.71 601.912L267.711 601.912L267.711 601.912L267.712 601.912L267.713 601.912L267.713 601.911L267.714 601.911L267.714 601.911L267.715 601.911L267.716 601.911L267.716 601.911L267.717 601.91L267.717 601.91L267.718 601.91L267.719 601.91L267.719 601.91L267.72 601.909L267.72 601.909L267.721 601.909L267.722 601.909L267.722 601.909L267.723 601.909L267.723 601.908L267.724 601.908L267.725 601.908L267.725 601.908L267.726 601.908L267.726 601.907L267.727 601.907L267.728 601.907L267.728 601.907L267.729 601.907L267.729 601.906L267.73 601.906L267.73 601.906L267.731 601.906L267.732 601.906L267.732 601.906L267.733 601.905L267.733 601.905L267.734 601.905L267.735 601.905L267.735 601.905L267.736 601.904L267.736 601.904L267.737 601.904L267.738 601.904L267.738 601.904L267.739 601.904L267.739 601.903L267.74 601.903L267.741 601.903L267.741 601.903L267.742 601.903L267.742 601.902L267.743 601.902L267.744 601.902L267.744 601.902L267.745 601.902L267.745 601.902L267.746 601.901L267.747 601.901L267.747 601.901L267.748 601.901L267.748 601.901L267.75 601.9L272.75 600.05C272.902 599.985 273.074 599.986 273.226 600.052C273.377 600.119 273.494 600.244 273.55 600.4C273.633 600.55 273.641 600.73 273.572 600.886C273.504 601.043 273.366 601.159 273.2 601.2L268.2 603.1C266.7 603.65 265.15 604.2 263.65 604.65L263.5 604.7ZM204.8 601.55C207.886 602.868 211.041 604.019 214.25 605V604.95C214.566 605.034 214.898 604.889 215.05 604.6C215.146 604.255 214.945 603.897 214.6 603.8C211.441 602.836 208.336 601.701 205.3 600.4C204.969 600.288 204.606 600.438 204.45 600.75C204.344 601.067 204.495 601.413 204.8 601.55ZM243.85 608.5C243.519 608.5 243.25 608.231 243.25 607.9C243.22 607.738 243.264 607.571 243.371 607.445C243.478 607.319 243.635 607.247 243.8 607.25C247.157 607.023 250.497 606.589 253.8 605.95C254.144 605.888 254.475 606.109 254.55 606.45C254.579 606.609 254.542 606.774 254.448 606.906C254.354 607.037 254.21 607.126 254.05 607.15C250.747 607.799 247.407 608.25 244.05 608.5H243.85ZM233.85 608.5C230.496 608.299 227.157 607.899 223.85 607.3C223.679 607.277 223.526 607.182 223.43 607.038C223.335 606.895 223.305 606.717 223.35 606.55C223.374 606.39 223.463 606.246 223.594 606.152C223.726 606.058 223.891 606.021 224.05 606.05C227.356 606.65 230.696 607.05 234.05 607.25C234.218 607.249 234.379 607.319 234.493 607.443C234.607 607.567 234.664 607.732 234.65 607.9C234.64 608.093 234.545 608.272 234.391 608.388C234.236 608.504 234.038 608.545 233.85 608.5ZM380.15 219.2C380.235 219.243 380.329 219.26 380.422 219.251C380.612 219.368 380.856 219.37 381.05 219.25C381.291 218.999 381.291 218.601 381.05 218.35C379.27 216.491 377.272 214.633 375.327 212.823L375.326 212.823C374.812 212.345 374.302 211.87 373.8 211.4C373.549 211.159 373.152 211.159 372.9 211.4C372.787 211.513 372.724 211.666 372.724 211.825C372.724 211.984 372.787 212.137 372.9 212.25C374.386 213.736 376.002 215.265 377.634 216.809L377.635 216.81L377.636 216.811L377.643 216.817L377.648 216.822L377.658 216.832C378.49 217.619 379.326 218.409 380.15 219.2ZM334.4 180.05H334.75C334.897 180.051 335.04 179.997 335.15 179.9C335.263 179.787 335.327 179.634 335.327 179.475C335.327 179.316 335.263 179.163 335.15 179.05L335.148 179.048L335.147 179.048C332.448 177.048 329.749 175.049 327 173.1C326.719 172.999 326.405 173.102 326.239 173.351C326.073 173.6 326.098 173.929 326.3 174.15C329 176.05 331.75 178.05 334.4 180.05ZM284.1 147.55H283.8C280.867 145.95 277.917 144.4 274.95 142.9C274.773 142.81 274.647 142.643 274.608 142.448C274.569 142.254 274.621 142.051 274.75 141.9C274.824 141.749 274.958 141.635 275.12 141.588C275.282 141.54 275.456 141.563 275.6 141.65C278.5 143.1 281.5 144.7 284.45 146.3C284.563 146.413 284.627 146.566 284.627 146.725C284.627 146.884 284.563 147.037 284.45 147.15C284.42 147.324 284.308 147.472 284.15 147.55H284.1ZM199.75 116.9C203.15 117.4 206.45 118.05 209.75 118.75C210.066 118.812 210.376 118.614 210.45 118.3C210.512 117.956 210.291 117.625 209.95 117.55C206.5 116.8 203.15 116.2 199.95 115.65C199.791 115.621 199.626 115.658 199.494 115.752C199.363 115.846 199.274 115.99 199.25 116.15C199.188 116.494 199.409 116.825 199.75 116.9ZM159.328 115.408C159.443 115.512 159.596 115.564 159.75 115.55H159.7C163 115.2 166.35 114.9 169.7 114.9C169.868 114.901 170.029 114.831 170.143 114.707C170.257 114.583 170.314 114.418 170.3 114.25C170.276 113.929 170.021 113.674 169.7 113.65C166.3 113.75 162.95 114 159.7 114.35C159.535 114.347 159.378 114.419 159.271 114.545C159.164 114.671 159.12 114.838 159.15 115C159.149 115.155 159.214 115.303 159.328 115.408Z" fill="#D8D5DB"/>
<path d="M469.75 395.75C469.75 396.35 469.75 396.85 469.75 397.4C468.5 411.35 456.5 441.1 444.75 467.4C445.15 476.9 445.45 485.4 445.5 492.4C445.5 493.7 445.5 494.9 445.5 496.1H444.05C444.4 502.3 444.85 513.05 445.2 525.4C401.95 551.55 348.35 567.4 292.55 580.4L283 582.55C274.706 584.434 266.198 585.207 257.7 584.85C257.189 582.758 257.003 580.599 257.15 578.45C258.332 550.261 261.271 522.173 265.95 494.35L262.85 493.9C274.2 455.6 279.9 400.35 282.85 352.4C283.2 346.75 283.5 341.25 283.75 335.8C276.5 343.2 271.5 347.8 271.5 347.8L256.15 322.55C237.2 336.25 219.3 348.35 210.55 353.95C203.3 360.75 190.95 361.75 181.25 348.95C165.55 328.4 143.4 242.15 140.8 227.5C140.421 227.357 140.066 227.154 139.75 226.9C136.15 221.9 123.55 194.65 124.75 189.35C125.95 184.05 131.85 172.6 138.7 171.05C137.9 168.6 137 166.05 135.7 162.5C132.8 154.6 129.35 146.6 134.55 147.5C139.75 148.4 151.65 177.5 153.7 182.5C154 180.15 154.3 178.25 154.3 178.25C155.9 173.55 164.3 171.05 163.05 178.25C161.6 188.25 165.1 193.25 164.95 201.5C164.95 201.95 164.95 202.45 164.95 203.15C164.97 203.45 164.97 203.75 164.95 204.05C164.977 204.266 164.977 204.484 164.95 204.7C164.95 204.7 164.95 204.95 164.95 205.05C163.733 211.195 161.574 217.114 158.55 222.6C164 240.4 189 286.95 203.55 312.6C212.45 305.2 223.55 296.4 235.05 287.6L234.05 285.95C234.05 285.95 293.35 230.5 324.05 226.3C324.5 224.15 324.8 221.8 325.1 219.35C325.4 216.9 325.6 212.75 325.7 209.35C303.15 209.1 301.05 192.5 303.3 171.4L299.75 170.5L305 156.9V155.9C304.424 155.229 304.089 154.384 304.05 153.5C304.05 151.85 304.5 150.45 305.4 150.4C305.529 150.35 305.671 150.35 305.8 150.4C305.8 149.2 306.2 148 306.35 146.8C306.75 144.15 307.25 141.8 307.75 139.35C306.413 139.087 305.037 139.087 303.7 139.35L303.3 136.9C304.954 136.605 306.646 136.605 308.3 136.9C309.96 130.196 312.641 123.788 316.25 117.9C309.05 117.4 305.65 115.05 310.65 109.25C318.4 100.25 355.1 95.75 373.6 99.55C380.1 100.9 384.35 103.25 384.4 106.75C384.4 107.15 384.4 107.4 384.4 107.75C386.292 106.949 387.921 105.632 389.1 103.95L391.2 105.35C389.993 107.057 388.422 108.475 386.6 109.5L385.85 109.9C405.65 122.8 377.65 191.9 377.55 191.9C377 203.75 376.65 215.45 376.7 223.7C394.5 225.75 405.75 230.95 413.2 239.1C433.2 255.15 463.9 321 463.9 321L451.35 324.3C460.3 353 467.9 381.8 470.1 391.45C470.166 392.892 470.048 394.337 469.75 395.75Z" fill="#D1CDD3"/>
<rect opacity="0.3" x="377.05" y="284.9" width="334.65" height="261.25" rx="33.6" transform="rotate(180 377.05 284.9)" fill="#4D8DFF"/>
<path opacity="0.3" fill-rule="evenodd" clip-rule="evenodd" d="M40.15 308.55H354.75C365.385 308.55 375.582 304.315 383.087 296.781C390.593 289.247 394.79 279.035 394.75 268.4V40.15C394.75 18.0586 376.841 0.150024 354.75 0.150024H40.15C18.0586 0.150024 0.150024 18.0586 0.150024 40.15V268.55C0.150024 290.641 18.0586 308.55 40.15 308.55ZM1.25002 40.15C1.27757 18.6776 18.6776 1.27757 40.15 1.25002H354.75C376.222 1.27757 393.622 18.6776 393.65 40.15V268.4C393.622 289.872 376.222 307.272 354.75 307.3H40.15C18.6776 307.272 1.27757 289.872 1.25002 268.4V40.15Z" fill="#4D8DFF"/>
<g opacity="0.3">
<rect x="126.05" y="101.05" width="55.9" height="43.65" rx="5.6" transform="rotate(180 126.05 101.05)" fill="#4D8DFF"/>
<rect x="200.45" y="101.05" width="55.9" height="43.65" rx="5.6" transform="rotate(180 200.45 101.05)" fill="#4D8DFF"/>
<rect x="274.9" y="101.05" width="55.9" height="43.65" rx="5.6" transform="rotate(180 274.9 101.05)" fill="#4D8DFF"/>
<rect x="349.35" y="101.05" width="55.9" height="43.65" rx="5.6" transform="rotate(180 349.35 101.05)" fill="#4D8DFF"/>
</g>
<g opacity="0.3">
<rect x="126.05" y="176.1" width="55.9" height="43.65" rx="5.6" transform="rotate(180 126.05 176.1)" fill="#4D8DFF"/>
<rect x="200.45" y="176.1" width="55.9" height="43.65" rx="5.6" transform="rotate(180 200.45 176.1)" fill="#4D8DFF"/>
<rect x="274.9" y="176.1" width="55.9" height="43.65" rx="5.6" transform="rotate(180 274.9 176.1)" fill="#4D8DFF"/>
<rect x="349.35" y="176.1" width="55.9" height="43.65" rx="5.6" transform="rotate(180 349.35 176.1)" fill="#4D8DFF"/>
</g>
<g opacity="0.3">
<rect x="126.05" y="251.1" width="55.9" height="43.65" rx="5.6" transform="rotate(180 126.05 251.1)" fill="#4D8DFF"/>
<rect x="200.45" y="251.1" width="55.9" height="43.65" rx="5.6" transform="rotate(180 200.45 251.1)" fill="#4D8DFF"/>
<rect x="274.9" y="251.1" width="55.9" height="43.65" rx="5.6" transform="rotate(180 274.9 251.1)" fill="#4D8DFF"/>
<rect x="349.35" y="251.1" width="55.9" height="43.65" rx="5.6" transform="rotate(180 349.35 251.1)" fill="#4D8DFF"/>
</g>
<rect x="282" y="93.95" width="55.9" height="43.65" rx="5.6" transform="rotate(180 282 93.95)" fill="#4D8DFF"/>
<rect x="282" y="244" width="55.9" height="43.65" rx="5.6" transform="rotate(180 282 244)" fill="#FF4E4A"/>
<rect x="133.1" y="169" width="55.9" height="43.65" rx="5.6" transform="rotate(180 133.1 169)" fill="#FFC84D"/>
<path d="M416.1 148.75C414.4 159.65 411.1 218.75 412.45 232.25C413.8 245.75 347.45 249.85 356.3 234.8C365.15 219.75 358.85 169.8 358.85 169.8L416.1 148.75Z" fill="#FFAD69"/>
<path d="M411.5 150.45L358.85 169.7C360.822 186.173 361.29 202.792 360.25 219.35C381.95 210.4 377.15 192.2 377.15 182.4C377.15 173.5 411.55 152.15 411.5 150.45Z" fill="#D88344"/>
<path d="M342.1 152.7L333.9 170.2L343.9 174.25L342.1 152.7Z" fill="#D88344"/>
<path d="M341.95 146.9C336.95 180.55 328.75 214.1 369.55 208.55C410.35 203 416.65 150.8 416.55 140.9C415.9 88.3 351.55 80.8 341.95 146.9Z" fill="#FFAD69"/>
<path d="M421.5 110.1C423.607 109.011 425.437 107.455 426.85 105.55L424.75 104.15C423.474 105.862 421.741 107.179 419.75 107.95C419.777 107.601 419.777 107.249 419.75 106.9C419.75 93.3 356.45 97.2 346 109.35C339.8 116.55 346.4 118.45 357.1 118.1C356.306 118.711 355.713 119.548 355.4 120.5C348.35 155.05 381.65 189.05 385.4 191.95H412.6C412.6 191.95 441.1 122.8 421.5 110.1Z" fill="#232323"/>
<path d="M505.5 391.5C501.9 375.45 483.15 306 468.25 272.7L430.2 280.8C430.2 280.8 454.75 362.9 467.8 393.55C464.75 410.05 449.35 486.8 439.85 508.25C435.65 518.25 451.55 522.1 455.4 517.3C459.25 512.5 502.95 424.7 505.4 397.3C505.4 396.7 505.4 396.2 505.4 395.65C505.649 394.28 505.683 392.88 505.5 391.5Z" fill="#FFAD69"/>
<path d="M448.35 238.85C468.35 254.5 499.3 321.05 499.3 321.05L433.8 338.05C433.8 338.05 395.7 197.65 448.35 238.85Z" fill="#E5AA33"/>
<path d="M479.75 500.35C469.073 509.764 457.521 518.136 445.25 525.35C402 551.5 348.4 567.35 292.6 580.35C292.55 579.701 292.55 579.049 292.6 578.4C294.4 547.45 297.6 512.1 302.6 489.65L445.65 492.5L479.45 493.2C479.45 494.9 479.75 497.3 479.75 500.35Z" fill="#232323"/>
<path d="M400.45 222.9C439.7 224.2 453 237.45 459.75 260.4C467.45 286.4 481 443.65 481 496.15C481 496.15 363.45 504.5 298.35 493.8C318.75 424.85 320.95 300.9 321.4 263.8C321.7 236.25 350.65 221.25 400.45 222.9Z" fill="#FFC84D"/>
<path fill-rule="evenodd" clip-rule="evenodd" d="M405.3 249.9C406.003 250.851 407.118 251.408 408.3 251.4L408.9 251.2C410.242 251.03 411.388 250.151 411.9 248.9L417.6 234.7C417.98 233.559 417.798 232.305 417.108 231.319C416.418 230.334 415.302 229.733 414.1 229.7H397.75C396.33 229.7 395.031 230.503 394.396 231.773C393.761 233.043 393.898 234.564 394.75 235.7L405.3 249.9ZM396.5 232.9C396.714 232.463 397.163 232.189 397.65 232.2H413.95C414.37 232.195 414.765 232.402 415 232.75C415.225 233.118 415.225 233.582 415 233.95L409.3 248.1C409.149 248.537 408.76 248.848 408.3 248.9C407.855 248.952 407.416 248.761 407.15 248.4L396.5 234.2C396.245 233.804 396.245 233.296 396.5 232.9Z" fill="white"/>
<path d="M321.25 272.95C320.95 291.1 320.25 320.05 318.3 352.4C334.95 332.4 351.3 308.75 352.25 291C353.6 266.6 339.75 265.1 321.25 272.95Z" fill="#E5AA33"/>
<path d="M343.4 281.4L323.4 248.15C323.4 248.15 268.4 287.8 238.85 312.35C224.25 286.65 199.3 240.1 193.85 222.35C196.864 216.883 199.007 210.978 200.2 204.85C200.23 204.735 200.23 204.615 200.2 204.5C200.2 204.5 200.2 204.05 200.2 203.85C200.222 203.55 200.222 203.25 200.2 202.95C200.2 202.25 200.2 201.7 200.2 201.25C200.2 193.2 196.85 188.25 198.3 178.05C199.3 170.9 191.15 173.35 189.55 178.05L188.9 182.25C186.85 177.25 174.5 147.9 169.8 147.25C165.1 146.6 168.05 154.5 170.95 162.25C172.2 165.7 173.15 168.4 173.95 170.8C167.05 172.4 160.95 184.2 160 189.15C159.05 194.1 171.55 221.7 175 226.7C175.267 227.034 175.588 227.321 175.95 227.55C178.5 242.25 200.95 328.45 216.35 349.05C226.05 361.8 238.45 360.8 245.7 354.05C263.5 342.7 318.2 305.1 343.4 281.4Z" fill="#FFAD69"/>
<path d="M377.15 248.15C375.15 284.85 307.15 347.8 307.15 347.8L269.25 285.8C269.25 285.8 380.85 181.4 377.15 248.15Z" fill="#FFC84D"/>
<path d="M356.15 157.3C354.65 166.1 352.45 174.85 360.7 174.2C368.95 173.55 371.05 159.85 371.2 157.25C371.9 143.25 359.1 139.9 356.15 157.3Z" fill="#FFAD69"/>
</svg>
