<svg width="535" height="521" viewBox="0 0 535 521" fill="none" xmlns="http://www.w3.org/2000/svg">
<mask id="mask0" mask-type="alpha" maskUnits="userSpaceOnUse" x="0" y="53" width="533" height="468">
<path fill-rule="evenodd" clip-rule="evenodd" d="M0.000640869 53.948H532.615V520.035H0.000640869V53.948Z" fill="white"/>
</mask>
<g mask="url(#mask0)">
<path fill-rule="evenodd" clip-rule="evenodd" d="M499.715 308.198C498.065 310.848 496.419 313.453 494.664 316.048C479.314 339.103 460.264 361.248 439.169 381.603C438.215 382.548 437.215 383.503 436.22 384.448C433.215 387.298 430.115 390.153 427.014 392.898C421.669 397.803 416.164 402.548 410.564 407.098C407.614 409.598 404.569 412.053 401.564 414.448C366.669 442.053 329.37 466.203 292.615 484.398C281.22 490.103 269.819 495.198 258.569 499.598C199.864 522.853 145.219 528.303 107.52 505.248C95.5145 497.948 85.2645 487.748 77.1145 474.303C75.8145 472.148 74.5145 469.998 73.2145 467.853C61.1695 447.698 49.6645 427.453 39.5645 407.098C37.1645 402.348 34.9195 397.653 32.7195 392.898C-3.9305 314.148 -17.8855 234.448 34.0645 156.048C54.2645 125.553 87.4195 101.803 127.215 84.998C138.57 80.153 150.414 75.948 162.719 72.298C168.77 70.398 174.865 68.748 181.115 67.253C188.969 65.253 196.964 63.503 205.064 61.998C211.27 60.803 217.464 59.753 223.714 58.848C226.314 58.503 228.914 58.153 231.514 57.798C249.964 55.453 268.664 54.148 287.27 54.003C289.715 53.948 292.164 53.948 294.569 53.948C305.819 54.003 316.965 54.448 327.965 55.353C330.915 55.553 333.864 55.803 336.814 56.148C392.964 61.603 444.465 77.698 479.465 104.403C487.115 110.253 493.969 116.548 499.914 123.403C501.02 124.653 502.069 125.903 503.064 127.198C503.414 127.598 503.719 127.998 504.064 128.403C511.314 137.498 517.115 146.903 521.47 156.503C543.72 204.953 530.715 258.398 499.715 308.198Z" fill="#FDE6D6"/>
</g>
<path fill-rule="evenodd" clip-rule="evenodd" d="M386.54 454.638C373.05 468.778 363.445 488.998 377.955 500.978C394.16 514.353 427.585 511.248 444.865 486.013C455.91 469.893 461.755 444.408 449.52 430.113C439.045 417.873 403.09 437.288 386.54 454.638Z" fill="#E8E5EA"/>
<path fill-rule="evenodd" clip-rule="evenodd" d="M190.366 450.952C187.016 451.097 183.616 451.202 180.316 451.202C179.966 451.202 179.716 451.497 179.716 451.852C179.716 452.147 179.966 452.452 180.316 452.452C183.666 452.452 187.016 452.347 190.416 452.202C190.766 452.202 191.016 451.897 191.016 451.552C190.966 451.251 190.666 450.952 190.366 450.952ZM170.316 451.051C166.916 450.952 163.516 450.751 160.316 450.551C159.866 450.501 159.666 450.751 159.616 451.097C159.616 451.452 159.866 451.751 160.216 451.801C163.466 452.001 166.866 452.202 170.266 452.301C170.616 452.301 170.916 452.051 170.916 451.697C170.916 451.352 170.666 451.051 170.316 451.051ZM210.366 449.501C207.016 449.847 203.666 450.151 200.366 450.401C200.016 450.401 199.766 450.697 199.766 451.051C199.816 451.401 200.066 451.651 200.416 451.651H200.466C203.766 451.401 207.116 451.097 210.466 450.751C210.816 450.697 211.066 450.401 211.066 450.047C211.016 449.702 210.716 449.447 210.366 449.501ZM150.316 449.551C147.016 449.197 143.666 448.702 140.416 448.146C140.066 448.102 139.766 448.301 139.666 448.651C139.616 448.996 139.866 449.301 140.216 449.352C143.466 449.952 146.816 450.401 150.166 450.801H150.266C150.566 450.801 150.816 450.602 150.866 450.246C150.916 449.901 150.666 449.597 150.316 449.551ZM230.266 446.852C226.866 447.347 223.566 447.852 220.316 448.301C219.966 448.347 219.716 448.651 219.766 448.996C219.816 449.301 220.116 449.551 220.416 449.551H220.466C223.716 449.102 227.066 448.597 230.466 448.051C230.766 448.001 231.016 447.702 230.966 447.347C230.916 447.001 230.616 446.801 230.266 446.852ZM130.616 446.151C127.316 445.401 124.066 444.551 120.916 443.651C120.566 443.551 120.216 443.702 120.116 444.051C120.016 444.396 120.216 444.751 120.566 444.847C123.616 445.697 126.716 446.551 129.866 447.301C130.016 447.347 130.166 447.347 130.316 447.401H130.466C130.566 447.401 130.666 447.347 130.766 447.301L130.816 447.251C130.966 447.202 131.016 447.051 131.066 446.896C131.116 446.602 130.916 446.251 130.616 446.151ZM249.966 443.102C246.716 443.797 243.366 444.501 240.216 445.102H240.116C239.766 445.151 239.566 445.447 239.616 445.802C239.666 446.097 239.966 446.297 240.266 446.297H240.366C242.616 445.897 244.916 445.447 247.216 444.952C248.216 444.751 249.216 444.552 250.216 444.302C250.566 444.251 250.766 443.901 250.716 443.552C250.616 443.251 250.316 443.001 249.966 443.102ZM269.466 438.347C266.316 439.196 263.066 440.046 259.766 440.847C259.416 440.951 259.216 441.251 259.316 441.601C259.366 441.896 259.616 442.097 259.916 442.097C259.966 442.097 260.016 442.097 260.066 442.051C263.366 441.251 266.666 440.401 269.816 439.597C270.116 439.501 270.316 439.151 270.266 438.796C270.166 438.501 269.816 438.301 269.466 438.347ZM111.416 440.446C110.316 440.046 109.266 439.646 108.166 439.196C106.116 438.396 104.166 437.501 102.216 436.601C101.916 436.451 101.516 436.601 101.366 436.896C101.216 437.201 101.366 437.601 101.666 437.746C103.766 438.751 105.966 439.646 108.166 440.551C109.066 440.951 110.016 441.296 110.966 441.651H111.216C111.466 441.651 111.716 441.496 111.816 441.251C111.916 440.951 111.766 440.601 111.416 440.446ZM288.716 432.746C288.066 432.947 287.416 433.197 286.716 433.396C284.266 434.151 281.716 434.952 279.166 435.697C278.816 435.802 278.616 436.097 278.716 436.452C278.816 436.751 279.066 436.896 279.316 436.896H279.516C282.016 436.151 284.566 435.401 286.966 434.646C287.716 434.396 288.416 434.197 289.116 433.952C289.416 433.852 289.616 433.501 289.516 433.146C289.416 432.852 289.066 432.651 288.716 432.746ZM93.316 432.001L92.966 431.751C90.166 430.152 87.466 428.452 84.866 426.652C84.616 426.452 84.216 426.552 84.016 426.852C83.816 427.097 83.916 427.501 84.166 427.702C86.766 429.447 89.516 431.202 92.316 432.852L92.716 433.102C92.816 433.147 92.916 433.147 93.016 433.147C93.266 433.147 93.466 433.052 93.566 432.852C93.766 432.547 93.616 432.147 93.316 432.001ZM307.716 426.296C304.566 427.451 301.366 428.551 298.266 429.646C297.916 429.751 297.766 430.102 297.866 430.401C297.966 430.696 298.166 430.847 298.466 430.847C298.516 430.847 298.566 430.847 298.666 430.801C301.816 429.751 304.966 428.597 308.116 427.451C308.466 427.347 308.616 427.001 308.516 426.651C308.366 426.296 307.966 426.151 307.716 426.296ZM327.216 419.302C327.066 418.952 326.716 418.797 326.416 418.952C323.366 420.202 320.216 421.497 317.066 422.702C316.766 422.852 316.616 423.197 316.716 423.552C316.816 423.797 317.066 423.952 317.316 423.952C317.366 423.952 317.466 423.902 317.566 423.902C320.716 422.652 323.866 421.352 326.866 420.102C327.216 419.952 327.366 419.597 327.216 419.302ZM76.866 420.697C75.716 419.801 74.566 418.852 73.516 417.947C72.066 416.697 70.716 415.401 69.366 414.151C69.116 413.901 68.716 413.901 68.466 414.151C68.216 414.396 68.216 414.801 68.466 415.046C70.066 416.551 71.716 418.051 73.466 419.501C74.316 420.246 75.166 421.001 76.066 421.697C76.166 421.801 76.316 421.852 76.466 421.852C76.666 421.852 76.816 421.751 76.966 421.602C77.166 421.352 77.116 420.951 76.866 420.697ZM345.616 411.097C345.466 410.751 345.066 410.647 344.766 410.802C341.866 412.147 338.916 413.552 335.616 415.001C335.316 415.102 335.166 415.501 335.316 415.802C335.416 416.052 335.666 416.202 335.866 416.202C335.966 416.202 336.066 416.151 336.116 416.097C339.416 414.647 342.416 413.302 345.316 411.897C345.616 411.751 345.766 411.401 345.616 411.097ZM62.466 406.896C60.266 404.396 58.166 401.751 56.266 399.102C56.066 398.797 55.666 398.751 55.366 398.952C55.116 399.151 55.066 399.551 55.266 399.801C57.016 402.301 58.966 404.751 60.966 407.097C61.166 407.301 61.316 407.547 61.516 407.746C61.616 407.852 61.816 407.947 61.966 407.947C62.116 407.947 62.266 407.901 62.416 407.801C62.616 407.602 62.666 407.347 62.566 407.097C62.566 407.001 62.516 406.947 62.466 406.896ZM363.566 402.051C363.416 401.751 363.016 401.651 362.716 401.801C359.866 403.347 356.816 404.901 353.816 406.401C353.516 406.551 353.416 406.852 353.516 407.097C353.466 407.146 353.516 407.201 353.516 407.251C353.616 407.451 353.866 407.602 354.066 407.602C354.166 407.602 354.266 407.546 354.366 407.501C354.616 407.347 354.916 407.251 355.166 407.097C357.966 405.751 360.666 404.301 363.316 402.901C363.616 402.746 363.716 402.347 363.566 402.051ZM381.066 392.202C380.916 391.896 380.516 391.801 380.216 391.947C379.666 392.251 379.166 392.602 378.616 392.901C376.316 394.301 373.966 395.646 371.516 397.001C371.216 397.146 371.116 397.547 371.316 397.852C371.416 398.051 371.616 398.146 371.866 398.146C371.966 398.146 372.066 398.146 372.166 398.102C375.116 396.401 378.066 394.702 380.866 393.051C380.916 393.001 380.966 392.947 381.016 392.901C381.216 392.702 381.216 392.452 381.066 392.202ZM50.866 390.697C49.166 387.852 47.616 384.847 46.266 381.852C46.116 381.551 45.716 381.401 45.416 381.551C45.116 381.697 44.966 382.051 45.116 382.401C46.516 385.401 48.066 388.451 49.766 391.352C49.866 391.551 50.066 391.651 50.316 391.651C50.416 391.651 50.516 391.602 50.616 391.551C50.916 391.401 51.016 391.001 50.866 390.697ZM398.116 381.602C398.116 381.552 398.066 381.497 398.066 381.452C397.866 381.152 397.466 381.097 397.216 381.251C397.016 381.352 396.866 381.497 396.666 381.602C395.266 382.547 393.766 383.552 392.316 384.447C391.166 385.247 389.966 386.001 388.816 386.751C388.516 386.897 388.416 387.302 388.616 387.602C388.716 387.802 388.916 387.902 389.116 387.902C389.216 387.902 389.366 387.852 389.466 387.802C391.216 386.697 392.916 385.602 394.616 384.447C395.716 383.751 396.816 383.052 397.916 382.302C398.116 382.147 398.216 381.852 398.116 381.602ZM414.416 369.801C414.216 369.501 413.816 369.446 413.566 369.646C410.916 371.651 408.166 373.651 405.466 375.601C405.166 375.801 405.116 376.151 405.316 376.451C405.466 376.601 405.616 376.696 405.816 376.696C405.966 376.696 406.066 376.696 406.216 376.601C408.916 374.646 411.666 372.651 414.316 370.646C414.616 370.446 414.666 370.046 414.416 369.801ZM39.566 363.051C39.466 362.701 39.116 362.501 38.766 362.602C38.466 362.701 38.266 363.051 38.316 363.347C39.216 366.651 40.216 369.901 41.316 373.001C41.416 373.301 41.616 373.451 41.916 373.451C41.966 373.451 42.016 373.451 42.116 373.396C42.416 373.301 42.616 372.946 42.466 372.601C41.366 369.501 40.416 366.296 39.566 363.051ZM430.066 357.097C429.816 356.852 429.416 356.852 429.166 357.052C426.716 359.152 424.166 361.297 421.466 363.501C421.216 363.702 421.166 364.102 421.366 364.352C421.516 364.501 421.666 364.597 421.866 364.597C422.016 364.597 422.116 364.552 422.266 364.447C424.966 362.302 427.566 360.102 429.966 358.001C430.266 357.747 430.266 357.402 430.066 357.097ZM36.016 343.347C36.016 343.051 35.716 342.746 35.366 342.801C35.016 342.852 34.766 343.146 34.816 343.501C35.166 346.896 35.616 350.246 36.166 353.501C36.216 353.796 36.516 353.996 36.816 353.996H36.916C37.266 353.951 37.466 353.651 37.416 353.301C36.866 350.046 36.366 346.751 36.016 343.347ZM444.766 343.452C444.516 343.197 444.116 343.197 443.866 343.452C441.566 345.751 439.116 348.102 436.666 350.401C436.416 350.602 436.366 351.001 436.616 351.251C436.716 351.401 436.916 351.452 437.066 351.452C437.216 351.452 437.366 351.401 437.516 351.297C439.966 348.996 442.416 346.651 444.766 344.302C445.016 344.052 445.016 343.651 444.766 343.452ZM458.316 328.597C458.066 328.347 457.666 328.396 457.416 328.651C455.366 331.151 453.116 333.702 450.816 336.202C450.566 336.452 450.616 336.852 450.866 337.097C450.966 337.202 451.116 337.251 451.266 337.251C451.466 337.251 451.616 337.146 451.716 337.051C454.066 334.501 456.316 331.947 458.416 329.447C458.616 329.197 458.566 328.797 458.316 328.597ZM35.266 327.852C35.266 326.401 35.266 324.901 35.316 323.396C35.316 323.051 35.066 322.746 34.716 322.746C34.366 322.746 34.066 323.001 34.066 323.347C34.016 324.847 34.016 326.352 34.016 327.852C34.016 329.751 34.066 331.602 34.116 333.451C34.116 333.751 34.416 334.051 34.716 334.051H34.766C35.116 333.996 35.366 333.751 35.366 333.396C35.316 331.551 35.266 329.701 35.266 327.852ZM470.416 312.602C470.116 312.401 469.766 312.452 469.566 312.746C467.716 315.447 465.716 318.197 463.716 320.847C463.466 321.151 463.566 321.551 463.816 321.751C463.916 321.801 464.066 321.852 464.216 321.852C464.366 321.852 464.566 321.801 464.716 321.602C466.716 318.952 468.716 316.202 470.566 313.452C470.766 313.146 470.716 312.746 470.416 312.602ZM36.416 302.747C36.016 302.652 35.766 302.902 35.716 303.251C35.266 306.652 34.916 310.001 34.616 313.302C34.616 313.652 34.866 313.952 35.216 313.952H35.266C35.566 313.952 35.866 313.702 35.866 313.397C36.166 310.102 36.516 306.751 36.966 303.452C37.016 303.102 36.766 302.747 36.416 302.747ZM480.666 295.302C480.366 295.202 480.016 295.302 479.816 295.602C478.366 298.452 476.716 301.402 474.966 304.302C474.766 304.597 474.866 305.001 475.166 305.202C475.266 305.247 475.366 305.247 475.466 305.247C475.716 305.247 475.916 305.152 476.016 304.952C477.816 302.001 479.466 299.052 480.966 296.152C481.116 295.847 480.966 295.447 480.666 295.302ZM40.016 282.947C39.666 282.901 39.366 283.102 39.266 283.451C38.566 286.751 37.866 290.046 37.266 293.301C37.216 293.651 37.466 293.951 37.766 294.051H37.916C38.216 294.051 38.466 293.852 38.516 293.551C39.116 290.301 39.766 287.001 40.516 283.701C40.566 283.347 40.366 283.051 40.016 282.947ZM488.566 276.852C488.216 276.751 487.866 276.897 487.766 277.251C486.716 280.302 485.466 283.452 484.116 286.552C483.966 286.897 484.116 287.251 484.466 287.401C484.516 287.401 484.616 287.452 484.716 287.452C484.916 287.452 485.166 287.302 485.266 287.052C486.616 283.901 487.866 280.751 488.916 277.651C489.066 277.347 488.866 277.001 488.566 276.852ZM45.216 263.551C44.916 263.452 44.566 263.651 44.466 263.996C43.466 267.202 42.516 270.447 41.666 273.651C41.616 273.996 41.816 274.352 42.116 274.396C42.166 274.447 42.216 274.447 42.316 274.447C42.566 274.447 42.816 274.251 42.916 273.996C43.716 270.801 44.666 267.547 45.666 264.352C45.766 263.996 45.566 263.651 45.216 263.551ZM493.866 257.501C493.516 257.402 493.216 257.652 493.116 257.947C492.416 261.152 491.566 264.397 490.666 267.702C490.616 268.001 490.766 268.347 491.116 268.452C491.166 268.452 491.216 268.501 491.266 268.501C491.566 268.501 491.816 268.302 491.866 268.001C492.766 264.751 493.616 261.452 494.366 258.251C494.416 257.902 494.216 257.547 493.866 257.501ZM51.766 244.552C51.416 244.447 51.066 244.597 50.966 244.902C49.766 248.052 48.616 251.251 47.566 254.397C47.416 254.701 47.616 255.046 47.916 255.201H48.116C48.416 255.201 48.616 255.046 48.716 254.802C49.816 251.652 50.966 248.451 52.116 245.352C52.216 245.046 52.066 244.647 51.766 244.552ZM497.466 237.702C497.166 237.652 496.816 237.902 496.766 238.251C496.316 241.552 495.766 244.847 495.166 248.147C495.116 248.501 495.316 248.796 495.666 248.902H495.766C496.066 248.902 496.316 248.702 496.416 248.397C497.016 245.046 497.566 241.697 498.016 238.452C498.016 238.102 497.816 237.747 497.466 237.702ZM59.366 225.952C59.066 225.802 58.716 225.952 58.566 226.297C57.216 229.352 55.866 232.452 54.616 235.552C54.516 235.847 54.666 236.251 54.966 236.352C55.066 236.402 55.116 236.402 55.216 236.402C55.466 236.402 55.666 236.251 55.766 236.001C57.016 232.947 58.366 229.847 59.716 226.802C59.866 226.452 59.716 226.097 59.366 225.952ZM499.216 217.701C498.916 217.746 498.616 217.946 498.566 218.302C498.416 221.651 498.216 225.001 497.916 228.302C497.866 228.651 498.116 228.951 498.466 228.996H498.516C498.816 228.996 499.116 228.751 499.116 228.396C499.466 225.101 499.666 221.751 499.816 218.347C499.866 218.052 499.566 217.746 499.216 217.701ZM68.016 207.802C67.716 207.652 67.316 207.747 67.166 208.052C65.666 211.052 64.166 214.102 62.766 217.097C62.616 217.451 62.766 217.802 63.066 217.947C63.166 218.001 63.216 218.001 63.316 218.001C63.566 218.001 63.766 217.902 63.866 217.652C65.316 214.647 66.816 211.602 68.316 208.652C68.466 208.302 68.316 207.947 68.016 207.802ZM499.816 198.246C499.816 197.901 499.516 197.651 499.166 197.651C498.816 197.651 498.566 197.951 498.566 198.301C498.716 201.601 498.816 204.951 498.816 208.301C498.816 208.651 499.116 208.951 499.416 208.951C499.766 208.951 500.066 208.651 500.066 208.301C500.066 204.951 499.966 201.551 499.816 198.246ZM77.516 190.051C77.216 189.901 76.816 190.001 76.666 190.301C74.966 193.246 73.366 196.251 71.816 199.151C71.666 199.451 71.766 199.801 72.066 199.951C72.166 200.001 72.266 200.051 72.366 200.051C72.566 200.051 72.816 199.951 72.916 199.701C74.466 196.851 76.066 193.851 77.766 190.901C77.916 190.601 77.816 190.251 77.516 190.051ZM497.916 178.151C497.866 177.802 497.566 177.552 497.216 177.651C496.866 177.701 496.666 178.001 496.716 178.347C497.166 181.651 497.566 185.001 497.866 188.302C497.916 188.651 498.166 188.851 498.516 188.851H498.566C498.916 188.851 499.166 188.552 499.116 188.201C498.816 184.851 498.416 181.501 497.916 178.151ZM87.766 172.802C87.516 172.602 87.116 172.702 86.916 173.001C85.166 175.847 83.416 178.702 81.716 181.602C81.516 181.902 81.616 182.251 81.916 182.452C82.016 182.501 82.116 182.552 82.216 182.552C82.466 182.552 82.666 182.452 82.766 182.251C84.466 179.352 86.216 176.501 87.966 173.652C88.166 173.347 88.066 173.001 87.766 172.802ZM496.216 167.852H496.166C495.616 164.702 494.866 161.552 494.116 158.347C494.066 158.001 493.716 157.802 493.366 157.902C493.066 157.952 492.816 158.302 492.916 158.652C493.666 161.702 494.316 164.751 494.916 167.802C494.966 168.001 495.016 168.247 495.066 168.452C495.116 168.751 495.366 168.952 495.666 168.952H495.766C496.116 168.852 496.316 168.552 496.266 168.202C496.266 168.102 496.216 167.952 496.216 167.852ZM99.016 155.651C98.766 155.451 98.366 155.501 98.166 155.802L97.916 156.151C96.066 158.901 94.166 161.701 92.366 164.496C92.166 164.802 92.216 165.201 92.516 165.401C92.616 165.451 92.766 165.501 92.866 165.501C93.066 165.501 93.266 165.401 93.366 165.201C95.216 162.401 97.066 159.597 98.966 156.852L99.216 156.501C99.366 156.251 99.316 155.847 99.016 155.651ZM490.816 146.351C490.066 143.851 489.266 141.401 488.466 139.001C488.366 138.651 487.966 138.501 487.666 138.601C487.316 138.751 487.166 139.101 487.266 139.401C488.216 142.151 489.116 144.951 489.966 147.801C490.066 148.201 490.216 148.551 490.316 148.951C490.416 149.251 490.666 149.401 490.916 149.401H491.116C491.416 149.301 491.616 148.951 491.516 148.601C491.316 147.851 491.066 147.096 490.816 146.351ZM110.566 139.201C110.266 139.001 109.866 139.052 109.666 139.352C107.766 142.052 105.816 144.751 103.866 147.552C103.666 147.802 103.766 148.201 104.016 148.401C104.166 148.501 104.266 148.501 104.416 148.501C104.566 148.501 104.766 148.451 104.916 148.246C106.816 145.501 108.766 142.751 110.716 140.052C110.916 139.751 110.816 139.402 110.566 139.201ZM122.466 123.001C122.166 122.802 121.816 122.852 121.566 123.102C119.566 125.747 117.566 128.451 115.566 131.201C115.366 131.451 115.466 131.852 115.716 132.052C115.816 132.152 115.966 132.201 116.066 132.201C116.266 132.201 116.466 132.097 116.616 131.902C118.566 129.201 120.566 126.501 122.566 123.852C122.766 123.602 122.716 123.202 122.466 123.001ZM484.916 129.552C484.616 128.802 484.266 128.001 483.916 127.201C483.766 126.802 483.566 126.351 483.366 125.902C482.616 124.052 481.766 122.152 480.916 120.302C480.766 120.001 480.416 119.851 480.066 120.001C479.766 120.152 479.616 120.501 479.766 120.802C480.366 122.097 480.966 123.402 481.516 124.701C481.916 125.552 482.266 126.402 482.566 127.201C482.966 128.052 483.316 128.852 483.616 129.701C483.666 129.802 483.716 129.901 483.766 130.001C483.866 130.251 484.066 130.401 484.316 130.401C484.416 130.401 484.466 130.401 484.566 130.352C484.816 130.251 485.016 130.001 484.966 129.701C484.966 129.651 484.966 129.597 484.916 129.552ZM134.816 107.097C134.516 106.902 134.166 106.951 133.916 107.201C131.866 109.701 129.916 112.302 127.916 114.851C127.866 114.952 127.766 115.001 127.716 115.101C127.466 115.402 127.516 115.802 127.816 116.001C127.916 116.101 128.066 116.152 128.166 116.152C128.316 116.152 128.466 116.101 128.566 116.001C128.616 115.952 128.616 115.951 128.666 115.902C130.766 113.201 132.816 110.601 134.916 108.001C135.116 107.751 135.066 107.351 134.816 107.097ZM476.516 111.251C475.866 110.052 475.266 108.902 474.616 107.751C473.666 105.952 472.666 104.202 471.616 102.452C471.466 102.152 471.066 102.052 470.766 102.202C470.466 102.402 470.366 102.751 470.566 103.052C471.616 104.852 472.616 106.702 473.666 108.602C474.216 109.652 474.816 110.747 475.366 111.852C475.516 112.052 475.716 112.152 475.916 112.152C476.016 112.152 476.116 112.152 476.216 112.097C476.516 111.952 476.666 111.552 476.516 111.251ZM147.666 91.6515C147.366 91.4515 147.016 91.5015 146.766 91.7515C144.616 94.2515 142.416 96.8015 140.266 99.4015C140.066 99.7015 140.066 100.101 140.366 100.301C140.466 100.401 140.616 100.451 140.766 100.451C140.916 100.451 141.116 100.351 141.216 100.201C143.366 97.6015 145.566 95.0515 147.716 92.5515C147.916 92.3015 147.916 91.9015 147.666 91.6515ZM466.316 93.8515C464.516 91.0515 462.616 88.3015 460.666 85.5515C460.466 85.2515 460.066 85.2015 459.766 85.4015C459.516 85.6015 459.416 86.0015 459.616 86.3015C461.566 89.0015 463.516 91.7515 465.316 94.5515C465.416 94.7015 465.616 94.8015 465.816 94.8015C465.916 94.8015 466.066 94.8015 466.166 94.7015C466.466 94.5515 466.516 94.1515 466.316 93.8515ZM161.066 76.7015C160.816 76.5015 160.416 76.5015 160.216 76.7515C157.916 79.1515 155.666 81.6515 153.416 84.1515C153.166 84.4515 153.216 84.8015 153.466 85.0515C153.566 85.1515 153.716 85.2015 153.866 85.2015C154.016 85.2015 154.216 85.1515 154.316 85.0015C156.566 82.5015 158.866 80.0015 161.116 77.6015C161.366 77.3515 161.316 76.9515 161.066 76.7015ZM454.566 77.5515C452.466 74.9015 450.266 72.3015 448.066 69.8015C447.866 69.5515 447.466 69.5515 447.216 69.7515C446.916 70.0015 446.916 70.4015 447.166 70.6515C449.316 73.1015 451.516 75.7015 453.566 78.3015C453.716 78.4515 453.866 78.5515 454.066 78.5515C454.216 78.5515 454.316 78.5015 454.466 78.4015C454.716 78.2015 454.766 77.8015 454.566 77.5515ZM175.166 62.4015C174.916 62.1515 174.566 62.1515 174.316 62.4015C171.966 64.6515 169.566 67.0515 167.166 69.4965C166.916 69.7515 166.916 70.1515 167.166 70.3515C167.266 70.5015 167.416 70.5515 167.616 70.5515C167.766 70.5515 167.916 70.5015 168.066 70.3515C170.416 67.9515 172.816 65.5515 175.166 63.3015C175.416 63.0515 175.416 62.6515 175.166 62.4015ZM441.266 62.4515C438.916 60.0515 436.516 57.6515 434.066 55.4015C433.816 55.1515 433.416 55.1515 433.166 55.4015C432.966 55.6515 432.966 56.0515 433.216 56.3015C435.666 58.5515 438.066 60.9515 440.366 63.3015C440.466 63.4015 440.616 63.5015 440.816 63.5015C440.966 63.5015 441.116 63.4515 441.216 63.3015C441.466 63.0515 441.466 62.6515 441.266 62.4515ZM190.066 48.9015C189.816 48.6515 189.416 48.6015 189.166 48.8515C187.366 50.4015 185.566 51.9515 183.816 53.5515C183.366 53.9015 182.966 54.3015 182.566 54.7015C182.266 54.9515 181.916 55.2015 181.616 55.5015C181.366 55.7465 181.366 56.1515 181.566 56.4015C181.716 56.5015 181.866 56.6015 182.066 56.6015C182.216 56.6015 182.366 56.5515 182.466 56.4515C183.016 55.9515 183.566 55.4515 184.116 54.9515L185.916 53.3015C187.266 52.0965 188.616 50.9515 189.966 49.8015C190.216 49.5515 190.266 49.1515 190.066 48.9015ZM426.566 48.7015C424.016 46.5015 421.366 44.4015 418.766 42.3515C418.466 42.1515 418.066 42.2015 417.866 42.4515C417.666 42.7515 417.716 43.1515 417.966 43.3465C420.616 45.3515 423.216 47.5015 425.766 49.6515C425.866 49.7515 426.016 49.8015 426.166 49.8015C426.316 49.8015 426.516 49.7015 426.616 49.5515C426.866 49.3015 426.816 48.9015 426.566 48.7015ZM205.766 36.4015C205.566 36.1515 205.166 36.0515 204.916 36.3015C202.266 38.2015 199.616 40.3015 196.916 42.4015C196.666 42.6515 196.616 43.0015 196.816 43.3015C196.966 43.4515 197.116 43.5515 197.316 43.5515C197.466 43.5515 197.566 43.5015 197.716 43.4015C200.366 41.2515 203.016 39.2015 205.666 37.3015C205.916 37.0965 205.966 36.7015 205.766 36.4015ZM410.616 36.4015C407.866 34.4515 405.066 32.6015 402.216 30.8015C401.966 30.6515 401.566 30.7015 401.366 31.0015C401.166 31.3015 401.266 31.7015 401.566 31.8515C404.366 33.6515 407.166 35.5015 409.916 37.4015C410.016 37.5015 410.166 37.5015 410.266 37.5015C410.466 37.5015 410.666 37.4515 410.766 37.2515C410.966 36.9515 410.916 36.6015 410.616 36.4015ZM222.466 25.2015C222.266 24.9515 221.866 24.8515 221.616 25.0015C218.766 26.7515 215.916 28.5515 213.116 30.4515C212.816 30.6515 212.766 31.0515 212.966 31.3515C213.066 31.5015 213.266 31.6015 213.466 31.6015C213.616 31.6015 213.716 31.5515 213.816 31.5015C216.616 29.5965 219.416 27.8015 222.266 26.1015C222.566 25.9015 222.616 25.5015 222.466 25.2015ZM393.616 25.6515C390.666 24.0015 387.666 22.3515 384.716 20.8465C384.416 20.7015 384.016 20.8465 383.866 21.1515C383.716 21.4515 383.866 21.8015 384.166 21.9965C387.116 23.5015 390.066 25.0515 392.966 26.7015C393.066 26.8015 393.166 26.8015 393.266 26.8015C393.516 26.8015 393.716 26.7015 393.816 26.5015C394.016 26.2015 393.916 25.8015 393.616 25.6515ZM240.116 15.7015C239.966 15.3515 239.616 15.2515 239.266 15.4015C236.316 16.8015 233.266 18.3465 230.316 19.9515C230.016 20.1515 229.916 20.5015 230.066 20.8015C230.166 21.0515 230.416 21.1515 230.616 21.1515C230.716 21.1515 230.816 21.1015 230.916 21.0515C233.866 19.4515 236.866 17.9515 239.816 16.5015C240.116 16.3515 240.266 16.0015 240.116 15.7015ZM375.616 16.5015C372.566 15.1515 369.466 13.8015 366.366 12.5515C366.066 12.4515 365.666 12.6015 365.566 12.9015C365.416 13.2465 365.566 13.6015 365.916 13.7515C369.016 14.9515 372.116 16.3015 375.116 17.6515C375.216 17.7015 375.266 17.7015 375.366 17.7015C375.616 17.7015 375.866 17.5515 375.966 17.3515C376.116 16.9965 375.966 16.6515 375.616 16.5015ZM257.966 7.8015C254.816 8.8515 251.616 10.0515 248.516 11.3015C248.166 11.4515 248.016 11.8015 248.166 12.0965C248.266 12.3515 248.516 12.5015 248.716 12.5015C248.816 12.5015 248.916 12.5015 248.966 12.4515C252.066 11.2015 255.216 10.0015 258.366 8.9515C258.666 8.8515 258.866 8.5015 258.716 8.2015C258.616 7.8515 258.266 7.7015 257.966 7.8015ZM356.916 9.0515C353.716 7.9515 350.516 6.9515 347.316 6.0515C346.966 5.9515 346.616 6.1515 346.516 6.5015C346.416 6.8015 346.616 7.1515 346.966 7.2515C350.116 8.1515 353.366 9.1515 356.516 10.2515H356.716C356.966 10.2515 357.216 10.1015 357.316 9.8515C357.416 9.4965 357.266 9.1515 356.916 9.0515ZM277.416 2.6015C274.116 3.2465 270.816 4.0015 267.616 4.9015C267.266 4.9515 267.066 5.3015 267.166 5.6515C267.216 5.9015 267.466 6.1015 267.766 6.1015H267.916C271.116 5.2515 274.416 4.4965 277.666 3.8515C277.966 3.8015 278.216 3.4515 278.166 3.1015C278.066 2.8015 277.766 2.5515 277.416 2.6015ZM337.516 3.6015C334.216 2.9015 330.866 2.2515 327.616 1.7515C327.266 1.7015 326.916 1.9515 326.866 2.2515C326.816 2.6015 327.066 2.9515 327.416 3.0015C330.666 3.5015 333.966 4.1015 337.266 4.8015C337.316 4.8515 337.366 4.8515 337.366 4.8515C337.666 4.8515 337.916 4.6515 338.016 4.3515C338.066 4.0015 337.866 3.7015 337.516 3.6015ZM297.466 0.151499H297.416C294.066 0.351499 290.666 0.651499 287.366 1.0515C287.016 1.1015 286.766 1.4015 286.816 1.7515C286.866 2.0515 287.116 2.3015 287.466 2.3015H287.516C290.816 1.9015 294.166 1.6015 297.516 1.4015C297.816 1.4015 298.116 1.1015 298.066 0.746499C298.066 0.451499 297.766 0.151499 297.466 0.151499ZM317.566 0.551499C314.266 0.251499 310.866 0.0514992 307.516 0.00149918C307.166 0.00149918 306.866 0.251499 306.866 0.601499C306.866 0.951499 307.116 1.2515 307.466 1.2515C310.816 1.3015 314.166 1.5015 317.466 1.8015H317.516C317.866 1.8015 318.116 1.5515 318.166 1.2015C318.166 0.846499 317.916 0.551499 317.566 0.551499Z" fill="#D8D5DB"/>
<path fill-rule="evenodd" clip-rule="evenodd" d="M497.317 135.051L490.817 146.351L489.967 147.801L480.562 164.051L478.517 167.651L418.217 272.051L408.217 289.351L398.217 272.051L362.467 210.151L356.967 200.651L344.712 179.401L316.017 129.701H500.417L497.317 135.051ZM311.717 127.201L344.712 184.351L354.112 200.651L359.617 210.151L395.362 272.051L408.217 294.351L421.117 272.051L480.762 168.701L482.862 165.101L499.167 136.901L503.667 129.051L504.067 128.401L504.767 127.201H311.717Z" fill="white"/>
<path fill-rule="evenodd" clip-rule="evenodd" d="M342.815 382.099C342.965 382.649 342.715 383.454 342.165 384.449C340.915 386.799 337.92 390.149 334.77 392.899C334.115 393.454 333.465 393.999 332.815 394.449C330.915 395.999 329.065 397.204 327.615 397.649C322.515 399.349 300.465 396.449 295.115 393.549C294.77 393.349 294.515 393.149 294.265 392.899C292.07 393.049 288.815 393.099 284.865 392.899C283.065 392.804 281.115 392.649 279.015 392.349C274.065 391.799 268.415 390.649 262.315 388.699C259.315 387.804 256.165 386.649 252.965 385.249C249.965 383.899 246.865 382.349 243.765 380.549C243.015 380.149 242.465 379.649 241.815 379.254C242.415 383.854 243.015 388.399 243.665 392.899C243.865 394.149 244.065 395.399 244.215 396.599C244.765 400.149 245.315 403.654 245.915 407.099C248.265 420.649 250.965 433.399 254.215 444.799C254.515 445.999 254.865 447.204 255.215 448.349C254.165 448.499 253.115 448.654 252.115 448.799C252.365 449.949 252.565 451.154 252.765 452.349C255.265 465.849 257.165 482.499 258.565 499.599C199.865 522.849 145.215 528.299 107.515 505.249C95.515 497.949 85.265 487.749 77.115 474.299C75.815 472.149 74.515 469.999 73.215 467.849C73.465 460.799 73.765 454.849 74.015 450.799C73.065 450.699 72.565 450.699 72.565 450.699C72.565 442.549 72.915 431.849 73.465 419.499C73.515 418.999 73.515 418.499 73.515 417.949C73.715 414.449 73.915 410.849 74.165 407.099C74.365 402.499 74.665 397.804 74.965 392.899C75.415 385.799 75.915 378.399 76.465 370.899C64.265 367.649 54.065 364.149 48.315 360.649C40.815 356.099 37.965 349.749 38.165 343.499C38.065 342.249 38.065 340.899 38.365 339.499C41.215 330.049 51.015 301.899 62.115 273.949L49.815 269.749C49.815 269.749 85.765 205.699 106.865 191.599C106.965 191.549 107.015 191.499 107.115 191.449C114.565 184.549 125.315 180.099 141.415 178.299C141.515 164.949 140.465 142.399 139.365 125.149C134.115 123.949 130.565 119.599 128.565 115.999C128.315 115.599 128.065 115.199 127.915 114.849C127.115 113.299 126.665 111.999 126.465 111.349C125.365 106.949 126.415 103.299 128.565 100.949C128.115 97.299 127.465 91.299 127.215 84.999C126.715 73.399 127.365 60.699 132.615 59.549C132.565 59.399 132.465 59.299 132.415 59.199C131.065 55.049 133.515 50.449 133.615 50.299L135.815 51.449C135.815 51.499 133.815 55.299 134.765 58.399C138.965 53.749 153.115 52.249 167.965 53.099C168.815 53.099 169.715 53.199 170.565 53.249C173.615 53.499 176.665 53.799 179.665 54.249C180.665 54.349 181.615 54.499 182.565 54.699C183.065 54.749 183.615 54.849 184.115 54.949C187.365 55.499 190.465 56.199 193.315 56.999C198.215 58.349 202.315 60.049 205.065 61.999C205.965 62.599 206.665 63.249 207.265 63.899C209.765 66.799 210.165 68.849 209.065 70.199C208.415 70.949 207.365 71.499 205.965 71.899C206.565 76.099 206.815 79.749 206.915 83.099C207.215 83.899 207.515 84.749 207.815 85.599C208.065 86.349 208.315 87.149 208.565 87.949C208.615 87.999 208.665 87.999 208.715 88.049C209.015 88.299 209.315 88.499 209.615 88.749C210.715 89.749 211.715 90.999 212.465 92.649L210.215 93.699C210.165 93.599 210.115 93.549 210.065 93.449C210.665 95.999 211.215 98.649 211.615 101.449C212.215 105.599 212.865 109.749 213.515 113.799C213.715 115.349 213.915 116.899 214.115 118.399C214.565 121.499 214.965 124.549 215.215 127.449C215.315 128.349 215.415 129.199 215.415 130.049C216.465 143.249 215.215 154.199 207.315 159.699C205.815 160.799 204.015 161.699 201.965 162.299C199.365 163.149 196.265 163.599 192.665 163.649C192.765 167.149 192.965 170.549 193.265 173.749C193.415 174.999 193.565 176.249 193.765 177.399C193.915 178.599 194.115 179.799 194.365 180.899C207.715 184.099 217.765 189.499 224.115 196.849C224.415 197.149 224.765 197.449 225.065 197.799C228.615 201.249 232.065 206.554 235.315 212.899C239.415 220.849 243.265 230.504 246.665 240.149C246.915 240.899 247.165 241.699 247.465 242.449C247.715 243.299 248.015 244.099 248.265 244.949C249.665 249.099 250.965 253.249 252.165 257.204C253.065 260.149 253.865 263.004 254.665 265.699C258.515 279.254 260.765 289.254 260.765 289.254L254.665 290.699L252.165 291.299L250.365 291.754C250.965 294.149 251.565 296.499 252.165 298.899C252.215 299.149 252.315 299.449 252.365 299.704C253.165 302.804 253.915 305.954 254.665 308.999C258.515 324.649 261.765 339.149 263.215 348.749C267.515 352.299 270.665 357.849 275.315 363.004C280.015 368.199 286.365 372.899 297.115 374.749C297.165 374.749 297.165 374.799 297.215 374.799C301.42 371.499 309.215 367.604 313.965 366.154C314.615 365.999 315.17 365.849 315.665 365.749C316.065 365.649 316.42 365.599 316.715 365.599C318.72 365.199 319.015 365.349 320.215 366.099C320.665 366.449 321.265 366.899 322.215 367.449C326.115 369.749 330.215 371.899 333.765 373.999C338.165 376.554 341.615 378.999 342.615 381.599C342.715 381.754 342.765 381.949 342.815 382.099Z" fill="#D1CDD3"/>
<path fill-rule="evenodd" clip-rule="evenodd" d="M357.669 367.426C354.104 365.292 355.144 365.021 351.114 365.762C346.764 366.566 337.404 371.057 332.669 374.797C332.619 374.792 332.584 374.766 332.534 374.757C311.094 371.081 307.324 355.917 298.654 348.737C293.849 317.257 269.639 231.587 269.639 231.587L233.159 245.152C238.474 281.247 259.864 349.897 265.414 365.387C266.324 367.262 267.499 368.751 268.814 369.962C270.634 373.807 273.904 377.517 279.189 380.572C301.059 393.217 321.759 393.392 329.679 392.887C329.934 393.142 330.224 393.362 330.554 393.547C335.919 396.477 357.929 399.346 363.069 397.661C368.294 395.947 378.994 385.117 378.224 382.117C376.974 377.217 366.604 372.777 357.669 367.426Z" fill="#FFAD69"/>
<path fill-rule="evenodd" clip-rule="evenodd" d="M236.904 208.447C226.604 231.597 230.389 304.952 230.389 304.952L296.214 289.262C296.214 289.262 264.064 147.377 236.904 208.447Z" fill="#377ADB"/>
<path fill-rule="evenodd" clip-rule="evenodd" d="M292.615 484.399C281.22 490.104 269.815 495.199 258.565 499.599C199.865 522.849 145.22 528.299 107.515 505.249C108.065 483.599 108.815 461.049 109.415 450.799C109.515 449.599 109.615 448.549 109.665 447.699L129.865 447.299H130.765L130.815 447.249L240.115 445.104H240.22L247.215 444.949L254.215 444.799L286.515 444.149C286.87 445.649 287.215 447.249 287.515 448.854C289.615 459.054 291.265 471.299 292.615 484.399Z" fill="#232323"/>
<path fill-rule="evenodd" clip-rule="evenodd" d="M188.55 177.429C149.28 178.724 136.005 191.979 129.235 214.904C121.545 240.934 108.005 398.154 108.005 450.689C108.005 450.689 225.53 459.019 290.635 448.344C270.22 379.389 268.015 255.409 267.605 218.469C267.3 190.759 238.33 175.784 188.55 177.429Z" fill="#4D8DFF"/>
<mask id="mask1" mask-type="alpha" maskUnits="userSpaceOnUse" x="0" y="0" width="533" height="521">
<path fill-rule="evenodd" clip-rule="evenodd" d="M0 520.035H532.615V0H0V520.035Z" fill="white"/>
</mask>
<g mask="url(#mask1)">
<path fill-rule="evenodd" clip-rule="evenodd" d="M194.965 314.3H252.165V244.95H194.965V314.3ZM192.465 316.8H254.665V242.45H192.465V316.8Z" fill="white"/>
<path fill-rule="evenodd" clip-rule="evenodd" d="M223.145 113.139C227.01 110.224 247.19 112.869 241.38 71.784C239.26 56.794 225.185 66.799 215.22 68.799C205.25 70.799 211.59 113.879 211.59 113.879L223.145 113.139Z" fill="#232323"/>
<path fill-rule="evenodd" clip-rule="evenodd" d="M172.901 103.298C174.576 114.188 177.926 173.103 176.531 186.788C175.136 200.473 241.316 204.378 232.656 189.303C224.001 174.223 230.146 124.238 230.146 124.238L172.901 103.298Z" fill="#FFAD69"/>
<path fill-rule="evenodd" clip-rule="evenodd" d="M177.48 104.963L230.135 124.243C230.135 124.243 226.58 153.353 228.725 173.853C188.575 170.748 178.27 120.038 177.595 110.273C177.48 108.433 177.425 106.658 177.48 104.963Z" fill="#D88344"/>
<path fill-rule="evenodd" clip-rule="evenodd" d="M247.041 101.443C251.921 135.077 260.206 168.618 219.436 163.092C178.661 157.573 172.331 105.298 172.446 95.4425C173.081 42.8275 237.446 35.3025 247.041 101.443Z" fill="#FFAD69"/>
<path fill-rule="evenodd" clip-rule="evenodd" d="M242.693 63.8865C233.098 52.7415 179.153 48.5365 170.223 58.4065C169.243 55.3065 171.243 51.4965 171.263 51.4615L169.063 50.2765C168.958 50.4665 166.523 55.0615 167.848 59.1915C167.893 59.3215 168.003 59.4115 168.048 59.5415C158.178 61.7165 164.478 104.597 164.478 104.597L176.033 103.857C179.898 100.947 193.313 80.4565 196.268 68.0915C217.393 71.6665 254.888 78.0515 242.693 63.8865Z" fill="#232323"/>
<path fill-rule="evenodd" clip-rule="evenodd" d="M236.956 368.613C232.826 368.843 216.801 371.628 211.176 370.323C192.271 365.908 143.551 344.053 117.326 331.838C133.461 296.813 157.211 234.823 157.211 234.823L119.866 223.863C102.536 255.968 78.6005 323.773 73.7805 339.508C73.5105 340.918 73.4905 342.243 73.5755 343.513C73.4055 349.738 76.2555 356.093 83.7405 360.653C104.501 373.298 182.816 385.568 204.506 387.963C204.906 388.773 205.436 389.508 206.296 389.993C211.601 392.973 235.741 395.203 240.706 396.083C246.931 397.183 265.826 398.783 265.011 396.253C263.676 392.108 256.671 367.508 236.956 368.613Z" fill="#FFAD69"/>
<path fill-rule="evenodd" clip-rule="evenodd" d="M142.28 191.618C121.215 205.698 85.2555 269.743 85.2555 269.743L149.29 291.618C149.29 291.618 197.85 154.478 142.28 191.618Z" fill="#4D8DFF"/>
<path fill-rule="evenodd" clip-rule="evenodd" d="M212.71 99.78C212.58 101.42 213.465 102.825 214.69 102.925C215.92 103.02 217.02 101.775 217.155 100.135C217.29 98.5 216.4 97.09 215.17 96.99C213.945 96.895 212.84 98.14 212.71 99.78Z" fill="#232323"/>
<path fill-rule="evenodd" clip-rule="evenodd" d="M238.682 100.469C238.552 102.109 239.437 103.514 240.662 103.614C241.892 103.709 242.992 102.464 243.127 100.824C243.257 99.1885 242.367 97.7785 241.142 97.6785C239.917 97.5835 238.812 98.8285 238.682 100.469Z" fill="#232323"/>
<path fill-rule="evenodd" clip-rule="evenodd" d="M206.321 90.576L204.226 89.211C208.646 82.441 216.066 84.011 216.386 84.081L215.841 86.521C215.601 86.471 209.776 85.281 206.321 90.576Z" fill="#232323"/>
<path fill-rule="evenodd" clip-rule="evenodd" d="M245.637 93.6935C242.992 87.9385 237.052 88.2535 236.817 88.2785L236.642 85.7835C236.962 85.7635 244.532 85.2985 247.907 92.6485L245.637 93.6935Z" fill="#232323"/>
<path fill-rule="evenodd" clip-rule="evenodd" d="M221.054 130.747C216.829 130.747 208.704 129.547 203.659 121.157L205.799 119.867C211.914 130.037 222.884 128.182 223.349 128.097L223.804 130.552C223.764 130.562 222.709 130.747 221.054 130.747Z" fill="#232323"/>
<path fill-rule="evenodd" clip-rule="evenodd" d="M240.278 119.355L228.138 119.19L228.173 116.69L236.928 116.81L231.523 98.375L233.918 97.67L240.278 119.355Z" fill="#D88344"/>
<path fill-rule="evenodd" clip-rule="evenodd" d="M182.788 107.578C186.468 115.878 191.083 123.908 179.518 125.398C167.953 126.893 162.573 113.908 161.918 111.363C158.418 97.7875 175.543 91.2575 182.788 107.578Z" fill="#FFAD69"/>
<path fill-rule="evenodd" clip-rule="evenodd" d="M495.891 407.084H17.451C13.546 407.084 10.351 403.889 10.351 399.984C10.351 396.079 13.546 392.884 17.451 392.884H495.891C499.796 392.884 502.991 396.079 502.991 399.984C502.991 403.889 499.796 407.084 495.891 407.084Z" fill="white"/>
<path fill-rule="evenodd" clip-rule="evenodd" d="M194.512 407.084H13.9015C9.99651 407.084 6.80151 403.889 6.80151 399.984C6.80151 396.079 9.99651 392.884 13.9015 392.884H194.512C198.417 392.884 201.612 396.079 201.612 399.984C201.612 403.889 198.417 407.084 194.512 407.084Z" fill="#D8D5DB"/>
<path fill-rule="evenodd" clip-rule="evenodd" d="M472.464 381.611H324.054C318.389 381.611 314.629 377.011 315.659 371.341L331.844 282.336C332.879 276.661 338.309 272.066 343.984 272.066H492.389C498.059 272.066 501.819 276.661 500.789 282.336L484.604 371.341C483.569 377.011 478.139 381.611 472.464 381.611Z" fill="#2B2B2B"/>
<path fill-rule="evenodd" clip-rule="evenodd" d="M476.091 381.611H327.681C322.016 381.611 318.256 377.011 319.286 371.341L335.471 282.336C336.501 276.661 341.936 272.066 347.606 272.066H496.011C501.686 272.066 505.446 276.661 504.416 282.336L488.226 371.341C487.196 377.011 481.761 381.611 476.091 381.611Z" fill="#232323"/>
<path fill-rule="evenodd" clip-rule="evenodd" d="M426.565 344.848H390.62L397.165 308.853H433.12L426.565 344.848ZM395.065 306.353L387.615 347.348H428.615L436.115 306.353H395.065Z" fill="white"/>
<path fill-rule="evenodd" clip-rule="evenodd" d="M298.025 384.457C298.025 389.092 301.82 392.887 306.46 392.887H461.705C466.345 392.887 470.14 389.092 470.14 384.457H298.025Z" fill="#232323"/>
<path fill-rule="evenodd" clip-rule="evenodd" d="M252.922 384.457C252.922 389.092 256.712 392.887 261.352 392.887H322.402C327.042 392.887 330.837 389.092 330.837 384.457H252.922Z" fill="#2B2B2B"/>
<path fill-rule="evenodd" clip-rule="evenodd" d="M423.45 108.227C418.195 108.227 413.935 112.492 413.935 117.747H432.97C432.97 112.492 428.71 108.227 423.45 108.227Z" fill="#377ADB"/>
<path fill-rule="evenodd" clip-rule="evenodd" d="M423.459 108.229V200.66C423.459 205.924 419.189 210.149 413.924 210.149H344.719V117.769C344.719 112.499 348.984 108.229 354.214 108.229H423.459Z" fill="#4D8DFF"/>
<path fill-rule="evenodd" clip-rule="evenodd" d="M404.431 200.659L335.191 200.649C335.191 205.904 339.456 210.164 344.716 210.164L413.921 210.149C408.661 210.149 404.431 205.924 404.431 200.659Z" fill="#6EA9FF"/>
<path fill-rule="evenodd" clip-rule="evenodd" d="M355.07 123.75H413.12V121.25H355.07V123.75Z" fill="white"/>
<path fill-rule="evenodd" clip-rule="evenodd" d="M355.07 133.22H413.12V130.72H355.07V133.22Z" fill="white"/>
<path fill-rule="evenodd" clip-rule="evenodd" d="M355.07 142.69H413.12V140.19H355.07V142.69Z" fill="white"/>
<path fill-rule="evenodd" clip-rule="evenodd" d="M355.07 152.16H413.12V149.66H355.07V152.16Z" fill="white"/>
<path fill-rule="evenodd" clip-rule="evenodd" d="M355.07 161.63H413.12V159.13H355.07V161.63Z" fill="white"/>
<path fill-rule="evenodd" clip-rule="evenodd" d="M355.07 171.1H413.12V168.6H355.07V171.1Z" fill="white"/>
<path fill-rule="evenodd" clip-rule="evenodd" d="M355.07 180.57H413.12V178.07H355.07V180.57Z" fill="white"/>
<path fill-rule="evenodd" clip-rule="evenodd" d="M355.07 190.04H413.12V187.54H355.07V190.04Z" fill="white"/>
<path fill-rule="evenodd" clip-rule="evenodd" d="M520.183 157.893C506.933 171.143 485.443 171.143 472.188 157.893C458.938 144.638 458.938 123.153 472.188 109.898C485.443 96.6425 506.933 96.6425 520.183 109.898C533.433 123.153 533.433 144.638 520.183 157.893Z" fill="#FFC84D"/>
<path fill-rule="evenodd" clip-rule="evenodd" d="M496.189 133.896L523.154 160.861C508.364 175.656 484.009 175.656 469.219 160.861C462.884 154.521 458.979 146.151 458.194 137.221L496.189 133.896Z" fill="#232323"/>
<path fill-rule="evenodd" clip-rule="evenodd" d="M496.189 133.896L458.309 138.311C457.809 134.036 458.039 129.706 458.989 125.501C459.934 121.301 461.584 117.291 463.874 113.641L496.189 133.896Z" fill="white"/>
<path fill-rule="evenodd" clip-rule="evenodd" d="M330.071 84.7995H301.321C297.611 84.7995 294.571 81.7645 294.571 78.0495V49.3045C294.571 45.5945 297.611 42.5545 301.321 42.5545H330.071C333.781 42.5545 336.821 45.5945 336.821 49.3045V78.0495C336.821 81.7645 333.781 84.7995 330.071 84.7995Z" fill="#232323"/>
<path fill-rule="evenodd" clip-rule="evenodd" d="M321.667 93.2025H292.917C289.207 93.2025 286.167 90.1675 286.167 86.4525V57.7075C286.167 53.9975 289.207 50.9575 292.917 50.9575H321.667C325.377 50.9575 328.417 53.9975 328.417 57.7075V86.4525C328.417 90.1675 325.377 93.2025 321.667 93.2025Z" fill="#FF4E4A"/>
</g>
</svg>
